name: $VER: courier36 39.0 (08.01.02)
spacing: character-cell
cell-size: 22x36
encoding: latin-1
default-char: "default"
bold-smear: 2
history: label
converter: monobit v0.43
source-format: amiga
source-name: 36
shift-up: -8

0x20:
' ':
    -

    right-bearing: 22


0x21:
'!':
    ....
    ....
    ....
    ....
    ....
    .@@.
    @@@@
    @@@@
    @@@@
    @@@@
    @@@@
    @@@@
    @@@@
    @@@@
    @@@@
    .@@.
    .@@.
    .@@.
    .@@.
    .@@.
    .@@.
    ....
    ....
    ....
    ....
    .@@.
    @@@@
    @@@@
    .@@.
    ....
    ....
    ....
    ....
    ....
    ....
    ....

    right-bearing: 18


0x22:
'"':
    ..........
    ..........
    ..........
    ..........
    ..........
    .@@....@@.
    @@@@..@@@@
    @@@@..@@@@
    @@@@..@@@@
    @@@@..@@@@
    .@@@...@@@
    .@@@...@@@
    ..@.....@.
    ..@.....@.
    ..@.....@.
    ..........
    ..........
    ..........
    ..........
    ..........
    ..........
    ..........
    ..........
    ..........
    ..........
    ..........
    ..........
    ..........
    ..........
    ..........
    ..........
    ..........
    ..........
    ..........
    ..........
    ..........

    right-bearing: 12


0x23:
'#':
    ................
    ................
    ................
    ......@@....@@..
    ......@@....@@..
    ......@@....@@..
    ......@@....@@..
    ......@@....@@..
    ......@@....@@..
    ......@@....@@..
    ......@@....@@..
    ......@@....@@..
    ......@@....@@..
    ..@@@@@@@@@@@@@@
    ..@@@@@@@@@@@@@@
    .....@@....@@...
    .....@@....@@...
    .....@@....@@...
    .....@@....@@...
    .....@@....@@...
    .....@@....@@...
    @@@@@@@@@@@@@@..
    @@@@@@@@@@@@@@..
    ....@@....@@....
    ....@@....@@....
    ....@@....@@....
    ....@@....@@....
    ....@@....@@....
    ....@@....@@....
    ....@@....@@....
    ....@@....@@....
    ....@@....@@....
    ....@@....@@....
    ................
    ................
    ................

    right-bearing: 6


0x24:
'$':
    ............
    ............
    ............
    .....@@.....
    .....@@.....
    .....@@.....
    .....@@.....
    ...@@@@...@@
    .@@@@@@@@@@@
    .@@....@@@@@
    @@.......@@@
    @@........@@
    @@........@@
    @@..........
    @@..........
    .@@.........
    ..@@@@@@@...
    ...@@@@@@@..
    .........@@.
    ..........@@
    ..........@@
    @@........@@
    @@........@@
    @@@.......@@
    @@@@@....@@.
    @@@@@@@@@@@.
    @@...@@@@...
    .....@@.....
    .....@@.....
    .....@@.....
    .....@@.....
    .....@@.....
    .....@@.....
    ............
    ............
    ............

    right-bearing: 10


0x25:
'%':
    ..................
    ..................
    ..................
    ..................
    ..................
    .....@@@@.........
    ...@@@@@@@@.......
    ...@@....@@.......
    ..@@......@@......
    ..@@......@@......
    ..@@......@@......
    ..@@......@@......
    ...@@....@@.......
    ....@@@@@@@.....@@
    .....@@@@....@@@@@
    ..........@@@@@@..
    ........@@@@@.....
    .....@@@@@........
    ..@@@@@@..........
    @@@@@....@@@@.....
    @@.....@@@@@@@@...
    .......@@....@@...
    ......@@......@@..
    ......@@......@@..
    ......@@......@@..
    ......@@......@@..
    .......@@....@@...
    .......@@@@@@@@...
    .........@@@@.....
    ..................
    ..................
    ..................
    ..................
    ..................
    ..................
    ..................

    right-bearing: 4


0x26:
'&':
    ..............
    ..............
    ..............
    ..............
    ..............
    ..............
    ..............
    ..............
    ..............
    .....@@@@@....
    ...@@@@@@@....
    ...@@.........
    ..@@..........
    ..@@..........
    ..@@..........
    ..@@..........
    ...@@.........
    ...@@.........
    ....@@........
    ...@@@@...@@..
    .@@@@@@@..@@..
    .@@...@@@@@...
    @@.....@@@@...
    @@......@@....
    @@......@@....
    @@.....@@@@...
    .@@..@@@..@@..
    .@@@@@@....@@@
    ...@@.......@@
    ..............
    ..............
    ..............
    ..............
    ..............
    ..............
    ..............

    right-bearing: 8


0x27:
''':
    ........
    ........
    ........
    ........
    ........
    .....@@.
    ....@@@@
    ....@@@@
    ...@@@@@
    ...@@@@.
    ..@@@@..
    ..@@@...
    .@@@....
    @@@.....
    @@......
    ........
    ........
    ........
    ........
    ........
    ........
    ........
    ........
    ........
    ........
    ........
    ........
    ........
    ........
    ........
    ........
    ........
    ........
    ........
    ........
    ........

    right-bearing: 14


0x28:
'(':
    ......
    ......
    ......
    ......
    ......
    ....@@
    ...@@@
    ...@@.
    ..@@..
    ..@@..
    .@@...
    .@@...
    .@@...
    @@....
    @@....
    @@....
    @@....
    @@....
    @@....
    @@....
    @@....
    @@....
    @@....
    @@....
    @@....
    .@@...
    .@@...
    .@@...
    ..@@..
    ..@@..
    ...@@.
    ...@@@
    ....@@
    ......
    ......
    ......

    right-bearing: 16


0x29:
')':
    ......
    ......
    ......
    ......
    ......
    @@....
    @@@...
    .@@...
    ..@@..
    ..@@..
    ...@@.
    ...@@.
    ...@@.
    ....@@
    ....@@
    ....@@
    ....@@
    ....@@
    ....@@
    ....@@
    ....@@
    ....@@
    ....@@
    ....@@
    ....@@
    ...@@.
    ...@@.
    ...@@.
    ..@@..
    ..@@..
    .@@...
    @@@...
    @@....
    ......
    ......
    ......

    right-bearing: 16


0x2a:
'*':
    ..............
    ..............
    ..............
    ..............
    ..............
    ......@@......
    ......@@......
    ......@@......
    ......@@......
    ......@@......
    @@@...@@...@@@
    @@@@@@@@@@@@@@
    ...@@@@@@@@...
    .....@@@@.....
    ....@@..@@....
    ....@@..@@....
    ...@@....@@...
    ...@@....@@...
    ..@@......@@..
    ..@@......@@..
    .@@........@@.
    ..............
    ..............
    ..............
    ..............
    ..............
    ..............
    ..............
    ..............
    ..............
    ..............
    ..............
    ..............
    ..............
    ..............
    ..............

    right-bearing: 8


0x2b:
'+':
    ..................
    ..................
    ..................
    ..................
    ..................
    ..................
    ..................
    ..................
    ..................
    ........@@........
    ........@@........
    ........@@........
    ........@@........
    ........@@........
    ........@@........
    ........@@........
    ........@@........
    @@@@@@@@@@@@@@@@@@
    @@@@@@@@@@@@@@@@@@
    ........@@........
    ........@@........
    ........@@........
    ........@@........
    ........@@........
    ........@@........
    ........@@........
    ........@@........
    ..................
    ..................
    ..................
    ..................
    ..................
    ..................
    ..................
    ..................
    ..................

    right-bearing: 4


0x2c:
',':
    ........
    ........
    ........
    ........
    ........
    ........
    ........
    ........
    ........
    ........
    ........
    ........
    ........
    ........
    ........
    ........
    ........
    ........
    ........
    ........
    ........
    ........
    ........
    ........
    ........
    .....@@.
    ....@@@@
    ....@@@@
    ...@@@@@
    ...@@@@.
    ..@@@@..
    ..@@@...
    .@@@....
    @@@.....
    @@......
    ........

    right-bearing: 14


0x2d:
'-':
    ..................
    ..................
    ..................
    ..................
    ..................
    ..................
    ..................
    ..................
    ..................
    ..................
    ..................
    ..................
    ..................
    ..................
    ..................
    ..................
    ..................
    @@@@@@@@@@@@@@@@@@
    @@@@@@@@@@@@@@@@@@
    ..................
    ..................
    ..................
    ..................
    ..................
    ..................
    ..................
    ..................
    ..................
    ..................
    ..................
    ..................
    ..................
    ..................
    ..................
    ..................
    ..................

    right-bearing: 4


0x2e:
'.':
    ......
    ......
    ......
    ......
    ......
    ......
    ......
    ......
    ......
    ......
    ......
    ......
    ......
    ......
    ......
    ......
    ......
    ......
    ......
    ......
    ......
    ......
    ......
    ......
    ......
    .@@@@.
    @@@@@@
    @@@@@@
    .@@@@.
    ......
    ......
    ......
    ......
    ......
    ......
    ......

    right-bearing: 16


0x2f:
'/':
    ................
    ................
    ................
    ................
    ..............@@
    ..............@@
    .............@@.
    .............@@.
    ............@@..
    ............@@..
    ...........@@...
    ...........@@...
    ..........@@....
    ..........@@....
    .........@@.....
    .........@@.....
    ........@@......
    ........@@......
    .......@@.......
    .......@@.......
    ......@@........
    ......@@........
    .....@@.........
    .....@@.........
    ....@@..........
    ....@@..........
    ...@@...........
    ...@@...........
    ..@@............
    ..@@............
    .@@.............
    .@@.............
    @@..............
    @@..............
    ................
    ................

    right-bearing: 6


0x30:
'0':
    ..............
    ..............
    ..............
    ..............
    ..............
    .....@@@@.....
    ...@@@@@@@@...
    ..@@@....@@@..
    .@@........@@.
    .@@........@@.
    @@..........@@
    @@..........@@
    @@..........@@
    @@..........@@
    @@..........@@
    @@..........@@
    @@..........@@
    @@..........@@
    @@..........@@
    @@..........@@
    @@..........@@
    @@..........@@
    @@..........@@
    @@..........@@
    .@@........@@.
    .@@........@@.
    ..@@@....@@@..
    ...@@@@@@@@...
    .....@@@@.....
    ..............
    ..............
    ..............
    ..............
    ..............
    ..............
    ..............

    right-bearing: 8


0x31:
'1':
    ..............
    ..............
    ..............
    ..............
    ..............
    .....@@@......
    ...@@@@@......
    @@@@@.@@......
    @@@...@@......
    ......@@......
    ......@@......
    ......@@......
    ......@@......
    ......@@......
    ......@@......
    ......@@......
    ......@@......
    ......@@......
    ......@@......
    ......@@......
    ......@@......
    ......@@......
    ......@@......
    ......@@......
    ......@@......
    ......@@......
    ......@@......
    @@@@@@@@@@@@@@
    @@@@@@@@@@@@@@
    ..............
    ..............
    ..............
    ..............
    ..............
    ..............
    ..............

    right-bearing: 8


0x32:
'2':
    ................
    ................
    ................
    ................
    ................
    .......@@@@.....
    .....@@@@@@@@...
    ....@@@....@@@..
    ...@@........@@.
    ...@@........@@.
    ..@@..........@@
    ..@@..........@@
    ..@@..........@@
    .............@@.
    .............@@.
    ............@@..
    ...........@@...
    ..........@@....
    .........@@.....
    ........@@......
    .......@@.......
    ......@@........
    .....@@.........
    ....@@..........
    ...@@.........@@
    ..@@..........@@
    .@@...........@@
    @@@@@@@@@@@@@@@@
    @@@@@@@@@@@@@@@@
    ................
    ................
    ................
    ................
    ................
    ................
    ................

    right-bearing: 6


0x33:
'3':
    ..............
    ..............
    ..............
    ..............
    ..............
    ...@@@@@@.....
    .@@@@@@@@@@...
    .@@......@@@..
    @@.........@@.
    ...........@@.
    ............@@
    ............@@
    ...........@@.
    ...........@@.
    .........@@@..
    ....@@@@@@@...
    ....@@@@@@@...
    .........@@@..
    ...........@@.
    ...........@@.
    ............@@
    ............@@
    ............@@
    ............@@
    ...........@@.
    @@.........@@.
    .@@......@@@..
    .@@@@@@@@@@...
    ...@@@@@@.....
    ..............
    ..............
    ..............
    ..............
    ..............
    ..............
    ..............

    right-bearing: 8


0x34:
'4':
    ..............
    ..............
    ..............
    ..............
    ..............
    ........@@@@..
    .......@@@@@..
    .......@@.@@..
    ......@@..@@..
    ......@@..@@..
    .....@@...@@..
    .....@@...@@..
    ....@@....@@..
    ....@@....@@..
    ...@@.....@@..
    ...@@.....@@..
    ..@@......@@..
    ..@@......@@..
    .@@.......@@..
    .@@.......@@..
    @@........@@..
    @@@@@@@@@@@@@@
    @@@@@@@@@@@@@@
    ..........@@..
    ..........@@..
    ..........@@..
    ..........@@..
    ......@@@@@@@@
    ......@@@@@@@@
    ..............
    ..............
    ..............
    ..............
    ..............
    ..............
    ..............

    right-bearing: 8


0x35:
'5':
    ................
    ................
    ................
    ................
    ................
    ..@@@@@@@@@@@@..
    ..@@@@@@@@@@@@..
    ..@@............
    ..@@............
    ..@@............
    ..@@............
    ..@@............
    ..@@............
    ..@@...@@@@.....
    ..@@.@@@@@@@@...
    ..@@@@@....@@@..
    ..@@@........@@.
    .............@@.
    ..............@@
    ..............@@
    ..............@@
    ..............@@
    ..............@@
    ..............@@
    .............@@.
    @@...........@@.
    @@@@.......@@@..
    ..@@@@@@@@@@@...
    ....@@@@@@@.....
    ................
    ................
    ................
    ................
    ................
    ................
    ................

    right-bearing: 6


0x36:
'6':
    ..............
    ..............
    ..............
    ..............
    ..............
    .......@@@@@@@
    .....@@@@@@@@@
    ....@@@.......
    ...@@.........
    ..@@..........
    ..@@..........
    .@@...........
    .@@...........
    @@............
    @@............
    @@...@@@@.....
    @@.@@@@@@@@...
    @@@@@....@@@..
    @@@........@@.
    @@.........@@.
    @@..........@@
    @@..........@@
    @@..........@@
    @@..........@@
    .@@........@@.
    .@@........@@.
    ..@@@....@@@..
    ...@@@@@@@@...
    .....@@@@.....
    ..............
    ..............
    ..............
    ..............
    ..............
    ..............
    ..............

    right-bearing: 8


0x37:
'7':
    ..............
    ..............
    ..............
    ..............
    ..............
    @@@@@@@@@@@@@@
    @@@@@@@@@@@@@@
    @@..........@@
    @@..........@@
    ............@@
    ...........@@.
    ...........@@.
    ...........@@.
    ..........@@..
    ..........@@..
    ..........@@..
    .........@@...
    .........@@...
    .........@@...
    ........@@....
    ........@@....
    ........@@....
    .......@@.....
    .......@@.....
    .......@@.....
    ......@@......
    ......@@......
    ......@@......
    ......@@......
    ..............
    ..............
    ..............
    ..............
    ..............
    ..............
    ..............

    right-bearing: 8


0x38:
'8':
    ..............
    ..............
    ..............
    ..............
    ..............
    .....@@@@.....
    ...@@@@@@@@...
    ..@@@....@@@..
    .@@........@@.
    .@@........@@.
    @@..........@@
    @@..........@@
    .@@........@@.
    .@@........@@.
    ..@@@....@@@..
    ...@@@@@@@@...
    ...@@@@@@@@...
    ..@@@....@@@..
    .@@........@@.
    .@@........@@.
    @@..........@@
    @@..........@@
    @@..........@@
    @@..........@@
    .@@........@@.
    .@@........@@.
    ..@@@....@@@..
    ...@@@@@@@@...
    .....@@@@.....
    ..............
    ..............
    ..............
    ..............
    ..............
    ..............
    ..............

    right-bearing: 8


0x39:
'9':
    ..............
    ..............
    ..............
    ..............
    ..............
    .....@@@@.....
    ...@@@@@@@@...
    ..@@@....@@@..
    .@@........@@.
    .@@........@@.
    @@..........@@
    @@..........@@
    @@..........@@
    @@..........@@
    .@@.........@@
    .@@........@@@
    ..@@@....@@@@@
    ...@@@@@@@@.@@
    .....@@@@...@@
    ............@@
    ............@@
    ............@@
    ...........@@.
    ...........@@.
    ..........@@..
    .........@@...
    .......@@@....
    @@@@@@@@@.....
    @@@@@@@.......
    ..............
    ..............
    ..............
    ..............
    ..............
    ..............
    ..............

    right-bearing: 8


0x3a:
':':
    ......
    ......
    ......
    ......
    ......
    ......
    ......
    ......
    ......
    ......
    ......
    ......
    ......
    .@@@@.
    @@@@@@
    @@@@@@
    .@@@@.
    ......
    ......
    ......
    ......
    ......
    ......
    ......
    ......
    .@@@@.
    @@@@@@
    @@@@@@
    .@@@@.
    ......
    ......
    ......
    ......
    ......
    ......
    ......

    right-bearing: 16


0x3b:
';':
    ..........
    ..........
    ..........
    ..........
    ..........
    ..........
    ..........
    ..........
    ..........
    ..........
    ..........
    ..........
    ..........
    ....@@@@..
    ...@@@@@@.
    ...@@@@@@.
    ....@@@@..
    ..........
    ..........
    ..........
    ..........
    ..........
    ..........
    ..........
    ..........
    .....@@...
    ....@@@@..
    ....@@@@..
    ...@@@@...
    ...@@@@...
    ..@@@@....
    ..@@@.....
    .@@@......
    @@@.......
    @@........
    ..........

    right-bearing: 12


0x3c:
'<':
    ....................
    ....................
    ....................
    ....................
    ....................
    ....................
    ....................
    ....................
    ....................
    ................@@@@
    ..............@@@@@@
    ............@@@@....
    ..........@@@@......
    ........@@@@........
    ......@@@@..........
    ....@@@@............
    ..@@@@..............
    @@@@................
    @@@@................
    ..@@@@..............
    ....@@@@............
    ......@@@@..........
    ........@@@@........
    ..........@@@@......
    ............@@@@....
    ..............@@@@@@
    ................@@@@
    ....................
    ....................
    ....................
    ....................
    ....................
    ....................
    ....................
    ....................
    ....................

    right-bearing: 2


0x3d:
'=':
    ..................
    ..................
    ..................
    ..................
    ..................
    ..................
    ..................
    ..................
    ..................
    ..................
    ..................
    ..................
    ..................
    ..................
    ..................
    @@@@@@@@@@@@@@@@@@
    @@@@@@@@@@@@@@@@@@
    ..................
    ..................
    ..................
    ..................
    @@@@@@@@@@@@@@@@@@
    @@@@@@@@@@@@@@@@@@
    ..................
    ..................
    ..................
    ..................
    ..................
    ..................
    ..................
    ..................
    ..................
    ..................
    ..................
    ..................
    ..................

    right-bearing: 4


0x3e:
'>':
    ....................
    ....................
    ....................
    ....................
    ....................
    ....................
    ....................
    ....................
    ....................
    @@@@................
    @@@@@@..............
    ....@@@@............
    ......@@@@..........
    ........@@@@........
    ..........@@@@......
    ............@@@@....
    ..............@@@@..
    ................@@@@
    ................@@@@
    ..............@@@@..
    ............@@@@....
    ..........@@@@......
    ........@@@@........
    ......@@@@..........
    ....@@@@............
    @@@@@@..............
    @@@@................
    ....................
    ....................
    ....................
    ....................
    ....................
    ....................
    ....................
    ....................
    ....................

    right-bearing: 2


0x3f:
'?':
    ..............
    ..............
    ..............
    ..............
    ..............
    ..............
    ..............
    ....@@@@@@....
    ..@@@@@@@@@@..
    .@@@......@@@.
    .@@........@@.
    @@..........@@
    @@..........@@
    ............@@
    ............@@
    ...........@@.
    ..........@@@.
    ........@@@@..
    .......@@@....
    .......@@.....
    ......@@......
    ......@@......
    ......@@......
    ..............
    ..............
    ......@@......
    .....@@@@.....
    .....@@@@.....
    ......@@......
    ..............
    ..............
    ..............
    ..............
    ..............
    ..............
    ..............

    right-bearing: 8


0x40:
'@':
    ................
    ................
    ................
    ................
    ................
    .....@@@@@@.....
    ...@@@@@@@@@....
    ..@@@......@@...
    .@@.........@@..
    .@@.........@@..
    @@..........@@..
    @@..........@@..
    @@..........@@..
    @@.......@@@@@..
    @@.....@@@@@@@..
    @@.....@@...@@..
    @@....@@....@@..
    @@....@@....@@..
    @@....@@....@@..
    @@....@@....@@..
    @@.....@@...@@..
    @@.....@@@@@@@@.
    @@.......@@@@@@.
    @@..............
    @@..............
    @@..............
    .@@.............
    .@@..........@@@
    ..@@@.......@@@@
    ...@@@@@@@@@@@..
    .....@@@@@@@....
    ................
    ................
    ................
    ................
    ................

    right-bearing: 6


0x41:
'A':
    ......................
    ......................
    ......................
    ......................
    ......................
    ......................
    ......................
    ....@@@@@@@@..........
    ....@@@@@@@@..........
    .........@@@@.........
    .........@@@@.........
    ........@@..@@........
    ........@@..@@........
    .......@@....@@.......
    .......@@....@@.......
    ......@@......@@......
    ......@@......@@......
    .....@@........@@.....
    .....@@........@@.....
    ....@@..........@@....
    ....@@..........@@....
    ...@@@@@@@@@@@@@@@@...
    ...@@@@@@@@@@@@@@@@...
    ..@@..............@@..
    ..@@..............@@..
    .@@................@@.
    .@@................@@.
    @@@@@@..........@@@@@@
    @@@@@@..........@@@@@@
    ......................
    ......................
    ......................
    ......................
    ......................
    ......................
    ......................



0x42:
'B':
    ..................
    ..................
    ..................
    ..................
    ..................
    ..................
    ..................
    @@@@@@@@@@@@@@....
    @@@@@@@@@@@@@@@@..
    ..@@..........@@@.
    ..@@............@@
    ..@@............@@
    ..@@............@@
    ..@@............@@
    ..@@............@@
    ..@@...........@@.
    ..@@..........@@..
    ..@@@@@@@@@@@@@...
    ..@@@@@@@@@@@@@...
    ..@@..........@@@.
    ..@@...........@@.
    ..@@............@@
    ..@@............@@
    ..@@............@@
    ..@@............@@
    ..@@............@@
    ..@@..........@@@.
    @@@@@@@@@@@@@@@@..
    @@@@@@@@@@@@@@....
    ..................
    ..................
    ..................
    ..................
    ..................
    ..................
    ..................

    right-bearing: 4


0x43:
'C':
    ..................
    ..................
    ..................
    ..................
    ..................
    ..................
    ..................
    .......@@@@@@...@@
    .....@@@@@@@@@@.@@
    ...@@@@......@@@@@
    ..@@@..........@@@
    ..@@............@@
    .@@..............@
    .@@...............
    @@................
    @@................
    @@................
    @@................
    @@................
    @@................
    @@................
    @@................
    .@@...............
    .@@.............@@
    ..@@............@@
    ..@@@..........@@.
    ...@@@@......@@@@.
    .....@@@@@@@@@@...
    .......@@@@@@.....
    ..................
    ..................
    ..................
    ..................
    ..................
    ..................
    ..................

    right-bearing: 4


0x44:
'D':
    ................
    ................
    ................
    ................
    ................
    ................
    ................
    @@@@@@@@@@@.....
    @@@@@@@@@@@@@...
    ..@@.......@@@..
    ..@@.........@@.
    ..@@.........@@.
    ..@@..........@@
    ..@@..........@@
    ..@@..........@@
    ..@@..........@@
    ..@@..........@@
    ..@@..........@@
    ..@@..........@@
    ..@@..........@@
    ..@@..........@@
    ..@@..........@@
    ..@@..........@@
    ..@@..........@@
    ..@@.........@@.
    ..@@.........@@.
    ..@@.......@@@..
    @@@@@@@@@@@@@...
    @@@@@@@@@@@.....
    ................
    ................
    ................
    ................
    ................
    ................
    ................

    right-bearing: 6


0x45:
'E':
    ................
    ................
    ................
    ................
    ................
    ................
    ................
    @@@@@@@@@@@@@@@.
    @@@@@@@@@@@@@@@.
    ..@@.........@@.
    ..@@.........@@.
    ..@@.........@@.
    ..@@.........@@.
    ..@@............
    ..@@............
    ..@@....@@......
    ..@@....@@......
    ..@@@@@@@@......
    ..@@@@@@@@......
    ..@@....@@......
    ..@@....@@......
    ..@@............
    ..@@............
    ..@@..........@@
    ..@@..........@@
    ..@@..........@@
    ..@@..........@@
    @@@@@@@@@@@@@@@@
    @@@@@@@@@@@@@@@@
    ................
    ................
    ................
    ................
    ................
    ................
    ................

    right-bearing: 6


0x46:
'F':
    ................
    ................
    ................
    ................
    ................
    ................
    ................
    @@@@@@@@@@@@@@@@
    @@@@@@@@@@@@@@@@
    ..@@..........@@
    ..@@..........@@
    ..@@..........@@
    ..@@..........@@
    ..@@............
    ..@@............
    ..@@....@@......
    ..@@....@@......
    ..@@@@@@@@......
    ..@@@@@@@@......
    ..@@....@@......
    ..@@....@@......
    ..@@............
    ..@@............
    ..@@............
    ..@@............
    ..@@............
    ..@@............
    @@@@@@@@........
    @@@@@@@@........
    ................
    ................
    ................
    ................
    ................
    ................
    ................

    right-bearing: 6


0x47:
'G':
    ....................
    ....................
    ....................
    ....................
    ....................
    ....................
    ....................
    .......@@@@@@...@@..
    .....@@@@@@@@@@.@@..
    ...@@@@......@@@@@..
    ..@@@..........@@@..
    ..@@............@@..
    .@@..............@..
    .@@.................
    @@..................
    @@..................
    @@..................
    @@..................
    @@..................
    @@..........@@@@@@@@
    @@..........@@@@@@@@
    @@..............@@..
    .@@.............@@..
    .@@.............@@..
    ..@@............@@..
    ..@@@..........@@@..
    ...@@@@......@@@@...
    .....@@@@@@@@@@.....
    .......@@@@@@.......
    ....................
    ....................
    ....................
    ....................
    ....................
    ....................
    ....................

    right-bearing: 2


0x48:
'H':
    ..................
    ..................
    ..................
    ..................
    ..................
    ..................
    ..................
    @@@@@@......@@@@@@
    @@@@@@......@@@@@@
    ..@@..........@@..
    ..@@..........@@..
    ..@@..........@@..
    ..@@..........@@..
    ..@@..........@@..
    ..@@..........@@..
    ..@@..........@@..
    ..@@..........@@..
    ..@@@@@@@@@@@@@@..
    ..@@@@@@@@@@@@@@..
    ..@@..........@@..
    ..@@..........@@..
    ..@@..........@@..
    ..@@..........@@..
    ..@@..........@@..
    ..@@..........@@..
    ..@@..........@@..
    ..@@..........@@..
    @@@@@@......@@@@@@
    @@@@@@......@@@@@@
    ..................
    ..................
    ..................
    ..................
    ..................
    ..................
    ..................

    right-bearing: 4


0x49:
'I':
    ..............
    ..............
    ..............
    ..............
    ..............
    ..............
    ..............
    @@@@@@@@@@@@@@
    @@@@@@@@@@@@@@
    ......@@......
    ......@@......
    ......@@......
    ......@@......
    ......@@......
    ......@@......
    ......@@......
    ......@@......
    ......@@......
    ......@@......
    ......@@......
    ......@@......
    ......@@......
    ......@@......
    ......@@......
    ......@@......
    ......@@......
    ......@@......
    @@@@@@@@@@@@@@
    @@@@@@@@@@@@@@
    ..............
    ..............
    ..............
    ..............
    ..............
    ..............
    ..............

    right-bearing: 8


0x4a:
'J':
    ..................
    ..................
    ..................
    ..................
    ..................
    ..................
    ..................
    ......@@@@@@@@@@@@
    ......@@@@@@@@@@@@
    ............@@....
    ............@@....
    ............@@....
    ............@@....
    ............@@....
    ............@@....
    ............@@....
    ............@@....
    ............@@....
    ............@@....
    @@..........@@....
    @@..........@@....
    @@..........@@....
    @@..........@@....
    @@..........@@....
    .@@........@@.....
    .@@........@@.....
    ..@@......@@......
    ...@@@@@@@@.......
    .....@@@@.........
    ..................
    ..................
    ..................
    ..................
    ..................
    ..................
    ..................

    right-bearing: 4


0x4b:
'K':
    ....................
    ....................
    ....................
    ....................
    ....................
    ....................
    ....................
    @@@@@@@@....@@@@@@@@
    @@@@@@@@....@@@@@@@@
    ..@@...........@@...
    ..@@..........@@....
    ..@@.........@@.....
    ..@@........@@......
    ..@@.......@@.......
    ..@@......@@........
    ..@@.....@@.........
    ..@@....@@..........
    ..@@...@@@..........
    ..@@..@@@@..........
    ..@@@@@..@@.........
    ..@@@@....@@........
    ..@@.......@@.......
    ..@@........@@......
    ..@@........@@......
    ..@@.........@@.....
    ..@@..........@@....
    ..@@...........@@...
    @@@@@@@@......@@@@@@
    @@@@@@@@......@@@@@@
    ....................
    ....................
    ....................
    ....................
    ....................
    ....................
    ....................

    right-bearing: 2


0x4c:
'L':
    ..................
    ..................
    ..................
    ..................
    ..................
    ..................
    ..................
    @@@@@@@@@@........
    @@@@@@@@@@........
    ....@@............
    ....@@............
    ....@@............
    ....@@............
    ....@@............
    ....@@............
    ....@@............
    ....@@............
    ....@@............
    ....@@............
    ....@@............
    ....@@............
    ....@@..........@@
    ....@@..........@@
    ....@@..........@@
    ....@@..........@@
    ....@@..........@@
    ....@@..........@@
    @@@@@@@@@@@@@@@@@@
    @@@@@@@@@@@@@@@@@@
    ..................
    ..................
    ..................
    ..................
    ..................
    ..................
    ..................

    right-bearing: 4


0x4d:
'M':
    ......................
    ......................
    ......................
    ......................
    ......................
    ......................
    ......................
    @@@@@@..........@@@@@@
    @@@@@@..........@@@@@@
    ..@@@@..........@@@@..
    ..@@.@@........@@.@@..
    ..@@.@@........@@.@@..
    ..@@..@@......@@..@@..
    ..@@..@@......@@..@@..
    ..@@...@@....@@...@@..
    ..@@...@@....@@...@@..
    ..@@....@@..@@....@@..
    ..@@....@@..@@....@@..
    ..@@.....@@@@.....@@..
    ..@@.....@@@@.....@@..
    ..@@......@@......@@..
    ..@@......@@......@@..
    ..@@..............@@..
    ..@@..............@@..
    ..@@..............@@..
    ..@@..............@@..
    ..@@..............@@..
    @@@@@@@@......@@@@@@@@
    @@@@@@@@......@@@@@@@@
    ......................
    ......................
    ......................
    ......................
    ......................
    ......................
    ......................



0x4e:
'N':
    ..................
    ..................
    ..................
    ..................
    ..................
    ..................
    ..................
    @@@@@@....@@@@@@@@
    @@@@@@....@@@@@@@@
    ..@@@@........@@..
    ..@@.@@.......@@..
    ..@@.@@.......@@..
    ..@@..@@......@@..
    ..@@..@@......@@..
    ..@@...@@.....@@..
    ..@@...@@.....@@..
    ..@@....@@....@@..
    ..@@....@@....@@..
    ..@@.....@@...@@..
    ..@@.....@@...@@..
    ..@@......@@..@@..
    ..@@......@@..@@..
    ..@@.......@@.@@..
    ..@@.......@@.@@..
    ..@@........@@@@..
    ..@@........@@@@..
    ..@@.........@@@..
    @@@@@@@@.....@@@..
    @@@@@@@@......@@..
    ..................
    ..................
    ..................
    ..................
    ..................
    ..................
    ..................

    right-bearing: 4


0x4f:
'O':
    ..................
    ..................
    ..................
    ..................
    ..................
    ..................
    ..................
    .......@@@@.......
    .....@@@@@@@@.....
    ...@@@@....@@@@...
    ..@@@........@@@..
    ..@@..........@@..
    .@@............@@.
    .@@............@@.
    @@..............@@
    @@..............@@
    @@..............@@
    @@..............@@
    @@..............@@
    @@..............@@
    @@..............@@
    @@..............@@
    .@@............@@.
    .@@............@@.
    ..@@..........@@..
    ..@@@........@@@..
    ...@@@@....@@@@...
    .....@@@@@@@@.....
    .......@@@@.......
    ..................
    ..................
    ..................
    ..................
    ..................
    ..................
    ..................

    right-bearing: 4


0x50:
'P':
    ..................
    ..................
    ..................
    ..................
    ..................
    ..................
    ..................
    @@@@@@@@@@@@@.....
    @@@@@@@@@@@@@@@...
    ..@@.........@@@..
    ..@@...........@@.
    ..@@...........@@.
    ..@@............@@
    ..@@............@@
    ..@@............@@
    ..@@............@@
    ..@@...........@@.
    ..@@...........@@.
    ..@@.........@@@..
    ..@@@@@@@@@@@@@...
    ..@@@@@@@@@@@.....
    ..@@..............
    ..@@..............
    ..@@..............
    ..@@..............
    ..@@..............
    ..@@..............
    @@@@@@@@@@........
    @@@@@@@@@@........
    ..................
    ..................
    ..................
    ..................
    ..................
    ..................
    ..................

    right-bearing: 4


0x51:
'Q':
    ..................
    ..................
    ..................
    ..................
    ..................
    ..................
    ..................
    .......@@@@.......
    .....@@@@@@@@.....
    ...@@@@....@@@@...
    ..@@@........@@@..
    ..@@..........@@..
    .@@............@@.
    .@@............@@.
    @@..............@@
    @@..............@@
    @@..............@@
    @@..............@@
    @@..............@@
    @@..............@@
    @@..............@@
    @@..............@@
    .@@............@@.
    .@@............@@.
    ..@@..........@@..
    ..@@@........@@@..
    ...@@@@....@@@@...
    .....@@@@@@@@.....
    .......@@@@.......
    ......@@@.......@@
    ....@@@@@@@...@@@.
    ...@@@...@@@@@@@..
    ..@@.......@@@....
    ..................
    ..................
    ..................

    right-bearing: 4


0x52:
'R':
    ....................
    ....................
    ....................
    ....................
    ....................
    ....................
    ....................
    @@@@@@@@@@@@@.......
    @@@@@@@@@@@@@@@.....
    ..@@.........@@@....
    ..@@...........@@...
    ..@@...........@@...
    ..@@............@@..
    ..@@............@@..
    ..@@............@@..
    ..@@............@@..
    ..@@...........@@...
    ..@@...........@@...
    ..@@.........@@@....
    ..@@@@@@@@@@@@@.....
    ..@@@@@@@@@@@.......
    ..@@.......@@.......
    ..@@........@@......
    ..@@.........@@.....
    ..@@..........@@....
    ..@@..........@@....
    ..@@...........@@...
    @@@@@@@@........@@@@
    @@@@@@@@.........@@@
    ....................
    ....................
    ....................
    ....................
    ....................
    ....................
    ....................

    right-bearing: 2


0x53:
'S':
    ................
    ................
    ................
    ................
    ................
    ................
    ................
    .....@@@@@@...@@
    ...@@@@@@@@@@.@@
    ..@@@......@@@@@
    .@@..........@@@
    .@@...........@@
    @@.............@
    @@..............
    .@@.............
    .@@.............
    ..@@@...........
    ...@@@@@@@@.....
    .....@@@@@@@@...
    ...........@@@..
    .............@@.
    .............@@.
    ..............@@
    @.............@@
    @@...........@@.
    @@@..........@@.
    @@@@@......@@@..
    @@.@@@@@@@@@@...
    @@...@@@@@@.....
    ................
    ................
    ................
    ................
    ................
    ................
    ................

    right-bearing: 6


0x54:
'T':
    ..................
    ..................
    ..................
    ..................
    ..................
    ..................
    ..................
    @@@@@@@@@@@@@@@@@@
    @@@@@@@@@@@@@@@@@@
    @@......@@......@@
    @@......@@......@@
    @@......@@......@@
    @@......@@......@@
    @@......@@......@@
    @@......@@......@@
    ........@@........
    ........@@........
    ........@@........
    ........@@........
    ........@@........
    ........@@........
    ........@@........
    ........@@........
    ........@@........
    ........@@........
    ........@@........
    ........@@........
    ....@@@@@@@@@@....
    ....@@@@@@@@@@....
    ..................
    ..................
    ..................
    ..................
    ..................
    ..................
    ..................

    right-bearing: 4


0x55:
'U':
    ....................
    ....................
    ....................
    ....................
    ....................
    ....................
    ....................
    @@@@@@@@....@@@@@@@@
    @@@@@@@@....@@@@@@@@
    ..@@............@@..
    ..@@............@@..
    ..@@............@@..
    ..@@............@@..
    ..@@............@@..
    ..@@............@@..
    ..@@............@@..
    ..@@............@@..
    ..@@............@@..
    ..@@............@@..
    ..@@............@@..
    ..@@............@@..
    ..@@............@@..
    ..@@............@@..
    ..@@............@@..
    ...@@..........@@...
    ...@@..........@@...
    ....@@@......@@@....
    .....@@@@@@@@@@.....
    .......@@@@@@.......
    ....................
    ....................
    ....................
    ....................
    ....................
    ....................
    ....................

    right-bearing: 2


0x56:
'V':
    ......................
    ......................
    ......................
    ......................
    ......................
    ......................
    ......................
    @@@@@@@@......@@@@@@@@
    @@@@@@@@......@@@@@@@@
    ..@@..............@@..
    ..@@..............@@..
    ..@@..............@@..
    ...@@............@@...
    ...@@............@@...
    ....@@..........@@....
    ....@@..........@@....
    .....@@........@@.....
    .....@@........@@.....
    ......@@......@@......
    ......@@......@@......
    .......@@....@@.......
    .......@@....@@.......
    ........@@..@@........
    ........@@..@@........
    .........@@@@.........
    .........@@@@.........
    .........@@@@.........
    ..........@@..........
    ..........@@..........
    ......................
    ......................
    ......................
    ......................
    ......................
    ......................
    ......................



0x57:
'W':
    ......................
    ......................
    ......................
    ......................
    ......................
    ......................
    ......................
    @@@@@@@@......@@@@@@@@
    @@@@@@@@......@@@@@@@@
    ..@@..............@@..
    ..@@..............@@..
    ..@@......@@......@@..
    ..@@......@@......@@..
    ..@@......@@......@@..
    ...@@....@@@@....@@...
    ...@@....@@@@....@@...
    ...@@....@@@@....@@...
    ...@@....@@@@....@@...
    ....@@..@@..@@..@@....
    ....@@..@@..@@..@@....
    ....@@..@@..@@..@@....
    ....@@..@@..@@..@@....
    ....@@..@@..@@..@@....
    .....@@@@....@@@@.....
    .....@@@@....@@@@.....
    .....@@@@....@@@@.....
    ......@@......@@......
    ......@@......@@......
    ......@@......@@......
    ......................
    ......................
    ......................
    ......................
    ......................
    ......................
    ......................



0x58:
'X':
    ..................
    ..................
    ..................
    ..................
    ..................
    ..................
    ..................
    @@@@@@......@@@@@@
    @@@@@@......@@@@@@
    ..@@..........@@..
    ..@@..........@@..
    ...@@........@@...
    ....@@......@@....
    .....@@....@@.....
    .....@@....@@.....
    ......@@..@@......
    .......@@@@.......
    .......@@@@.......
    .......@@@@.......
    .......@@@@.......
    ......@@..@@......
    .....@@....@@.....
    .....@@....@@.....
    ....@@......@@....
    ...@@........@@...
    ..@@..........@@..
    ..@@..........@@..
    @@@@@@......@@@@@@
    @@@@@@......@@@@@@
    ..................
    ..................
    ..................
    ..................
    ..................
    ..................
    ..................

    right-bearing: 4


0x59:
'Y':
    ..................
    ..................
    ..................
    ..................
    ..................
    ..................
    ..................
    @@@@@@......@@@@@@
    @@@@@@......@@@@@@
    ..@@..........@@..
    ...@@........@@...
    ...@@........@@...
    ....@@......@@....
    ....@@......@@....
    .....@@....@@.....
    .....@@....@@.....
    ......@@..@@......
    ......@@..@@......
    .......@@@@.......
    .......@@@@.......
    ........@@........
    ........@@........
    ........@@........
    ........@@........
    ........@@........
    ........@@........
    ........@@........
    ....@@@@@@@@@@....
    ....@@@@@@@@@@....
    ..................
    ..................
    ..................
    ..................
    ..................
    ..................
    ..................

    right-bearing: 4


0x5a:
'Z':
    ..............
    ..............
    ..............
    ..............
    ..............
    ..............
    ..............
    @@@@@@@@@@@@@@
    @@@@@@@@@@@@@@
    @@..........@@
    @@..........@@
    @@..........@@
    @@.........@@.
    ..........@@..
    .........@@...
    ........@@....
    .......@@.....
    ......@@......
    ......@@......
    .....@@.......
    ....@@........
    ...@@.........
    ..@@..........
    .@@.........@@
    @@..........@@
    @@..........@@
    @@..........@@
    @@@@@@@@@@@@@@
    @@@@@@@@@@@@@@
    ..............
    ..............
    ..............
    ..............
    ..............
    ..............
    ..............

    right-bearing: 8


0x5b:
'[':
    ......
    ......
    ......
    ......
    ......
    @@@@@@
    @@@@@@
    @@....
    @@....
    @@....
    @@....
    @@....
    @@....
    @@....
    @@....
    @@....
    @@....
    @@....
    @@....
    @@....
    @@....
    @@....
    @@....
    @@....
    @@....
    @@....
    @@....
    @@....
    @@....
    @@....
    @@....
    @@....
    @@....
    @@@@@@
    @@@@@@
    ......

    right-bearing: 16


0x5c:
'\':
    ................
    ................
    ................
    ................
    @@..............
    @@..............
    .@@.............
    .@@.............
    ..@@............
    ..@@............
    ...@@...........
    ...@@...........
    ....@@..........
    ....@@..........
    .....@@.........
    .....@@.........
    ......@@........
    ......@@........
    .......@@.......
    .......@@.......
    ........@@......
    ........@@......
    .........@@.....
    .........@@.....
    ..........@@....
    ..........@@....
    ...........@@...
    ...........@@...
    ............@@..
    ............@@..
    .............@@.
    .............@@.
    ..............@@
    ..............@@
    ................
    ................

    right-bearing: 6


0x5d:
']':
    ......
    ......
    ......
    ......
    ......
    @@@@@@
    @@@@@@
    ....@@
    ....@@
    ....@@
    ....@@
    ....@@
    ....@@
    ....@@
    ....@@
    ....@@
    ....@@
    ....@@
    ....@@
    ....@@
    ....@@
    ....@@
    ....@@
    ....@@
    ....@@
    ....@@
    ....@@
    ....@@
    ....@@
    ....@@
    ....@@
    ....@@
    ....@@
    @@@@@@
    @@@@@@
    ......

    right-bearing: 16


0x5e:
'^':
    ..............
    ..............
    ..............
    ..............
    ..............
    ......@@......
    .....@@@@.....
    ....@@..@@....
    ...@@....@@...
    ..@@......@@..
    .@@........@@.
    @@..........@@
    @............@
    ..............
    ..............
    ..............
    ..............
    ..............
    ..............
    ..............
    ..............
    ..............
    ..............
    ..............
    ..............
    ..............
    ..............
    ..............
    ..............
    ..............
    ..............
    ..............
    ..............
    ..............
    ..............
    ..............

    right-bearing: 8


0x5f:
'_':
    ......................
    ......................
    ......................
    ......................
    ......................
    ......................
    ......................
    ......................
    ......................
    ......................
    ......................
    ......................
    ......................
    ......................
    ......................
    ......................
    ......................
    ......................
    ......................
    ......................
    ......................
    ......................
    ......................
    ......................
    ......................
    ......................
    ......................
    ......................
    ......................
    ......................
    ......................
    ......................
    ......................
    ......................
    ......................
    @@@@@@@@@@@@@@@@@@@@@@



0x60:
'`':
    ......
    ......
    ......
    ......
    ......
    @@....
    @@@...
    .@@@..
    ..@@@.
    ...@@@
    ....@@
    ......
    ......
    ......
    ......
    ......
    ......
    ......
    ......
    ......
    ......
    ......
    ......
    ......
    ......
    ......
    ......
    ......
    ......
    ......
    ......
    ......
    ......
    ......
    ......
    ......

    right-bearing: 16


0x61:
'a':
    ..................
    ..................
    ..................
    ..................
    ..................
    ..................
    ..................
    ..................
    ..................
    ..................
    ..................
    ..................
    ..................
    .....@@@@@@.......
    ...@@@@@@@@@@.....
    ..@@@......@@.....
    ............@@....
    ............@@....
    ............@@....
    ....@@@@@@@@@@....
    ..@@@@@@@@@@@@....
    .@@@........@@....
    .@@.........@@....
    @@..........@@....
    @@..........@@....
    @@.........@@@....
    .@@.......@@@@....
    .@@@@@@@@@@.@@@@@@
    ...@@@@@@@...@@@@@
    ..................
    ..................
    ..................
    ..................
    ..................
    ..................
    ..................

    right-bearing: 4


0x62:
'b':
    ..................
    ..................
    ..................
    ..................
    ..................
    @@@@..............
    @@@@..............
    ..@@..............
    ..@@..............
    ..@@..............
    ..@@..............
    ..@@..............
    ..@@..............
    ..@@...@@@@@@.....
    ..@@.@@@@@@@@@@...
    ..@@@@@......@@@..
    ..@@@..........@@.
    ..@@...........@@.
    ..@@............@@
    ..@@............@@
    ..@@............@@
    ..@@............@@
    ..@@............@@
    ..@@............@@
    ..@@...........@@.
    ..@@@..........@@.
    ..@@@@@......@@@..
    @@@@.@@@@@@@@@@...
    @@@@...@@@@@@.....
    ..................
    ..................
    ..................
    ..................
    ..................
    ..................
    ..................

    right-bearing: 4


0x63:
'c':
    ................
    ................
    ................
    ................
    ................
    ................
    ................
    ................
    ................
    ................
    ................
    ................
    ................
    .....@@@@@@...@@
    ...@@@@@@@@@@.@@
    ..@@@......@@@@@
    .@@..........@@@
    .@@...........@@
    @@............@@
    @@..............
    @@..............
    @@..............
    @@..............
    @@..............
    .@@.............
    .@@..........@@@
    ..@@@.......@@@@
    ...@@@@@@@@@@@..
    .....@@@@@@@....
    ................
    ................
    ................
    ................
    ................
    ................
    ................

    right-bearing: 6


0x64:
'd':
    ..................
    ..................
    ..................
    ..................
    ..................
    ............@@@@..
    ............@@@@..
    ..............@@..
    ..............@@..
    ..............@@..
    ..............@@..
    ..............@@..
    ..............@@..
    .....@@@@@@...@@..
    ...@@@@@@@@@@.@@..
    ..@@@......@@@@@..
    .@@..........@@@..
    .@@...........@@..
    @@............@@..
    @@............@@..
    @@............@@..
    @@............@@..
    @@............@@..
    @@............@@..
    .@@...........@@..
    .@@..........@@@..
    ..@@@......@@@@@..
    ...@@@@@@@@@@.@@@@
    .....@@@@@@...@@@@
    ..................
    ..................
    ..................
    ..................
    ..................
    ..................
    ..................

    right-bearing: 4


0x65:
'e':
    ................
    ................
    ................
    ................
    ................
    ................
    ................
    ................
    ................
    ................
    ................
    ................
    ................
    .....@@@@@@.....
    ...@@@@@@@@@@...
    ..@@@......@@@..
    .@@..........@@.
    .@@..........@@.
    @@............@@
    @@@@@@@@@@@@@@@@
    @@@@@@@@@@@@@@@@
    @@..............
    @@..............
    @@..............
    .@@.............
    .@@..........@@@
    ..@@@.......@@@@
    ...@@@@@@@@@@@..
    .....@@@@@@@....
    ................
    ................
    ................
    ................
    ................
    ................
    ................

    right-bearing: 6


0x66:
'f':
    ................
    ................
    ................
    ................
    ................
    .........@@@@@@@
    .......@@@@@@@@@
    ......@@@.......
    .....@@.........
    .....@@.........
    ....@@..........
    ....@@..........
    ....@@..........
    @@@@@@@@@@@@@@..
    @@@@@@@@@@@@@@..
    ....@@..........
    ....@@..........
    ....@@..........
    ....@@..........
    ....@@..........
    ....@@..........
    ....@@..........
    ....@@..........
    ....@@..........
    ....@@..........
    ....@@..........
    ....@@..........
    @@@@@@@@@@@@@@..
    @@@@@@@@@@@@@@..
    ................
    ................
    ................
    ................
    ................
    ................
    ................

    right-bearing: 6


0x67:
'g':
    ..................
    ..................
    ..................
    ..................
    ..................
    ..................
    ..................
    ..................
    ..................
    ..................
    ..................
    ..................
    ..................
    .....@@@@@@...@@@@
    ...@@@@@@@@@@.@@@@
    ..@@@......@@@@@..
    .@@..........@@@..
    .@@...........@@..
    @@............@@..
    @@............@@..
    @@............@@..
    @@............@@..
    @@............@@..
    @@............@@..
    .@@...........@@..
    .@@..........@@@..
    ..@@@......@@@@@..
    ...@@@@@@@@@@.@@..
    .....@@@@@@...@@..
    ..............@@..
    ..............@@..
    ..............@@..
    .............@@...
    ............@@@...
    ..@@@@@@@@@@@@....
    ..@@@@@@@@@@......

    right-bearing: 4


0x68:
'h':
    ..................
    ..................
    ..................
    ..................
    ..................
    @@@@..............
    @@@@..............
    ..@@..............
    ..@@..............
    ..@@..............
    ..@@..............
    ..@@..............
    ..@@..............
    ..@@...@@@@@......
    ..@@.@@@@@@@@@....
    ..@@@@@.....@@@...
    ..@@@........@@...
    ..@@..........@@..
    ..@@..........@@..
    ..@@..........@@..
    ..@@..........@@..
    ..@@..........@@..
    ..@@..........@@..
    ..@@..........@@..
    ..@@..........@@..
    ..@@..........@@..
    ..@@..........@@..
    @@@@@@......@@@@@@
    @@@@@@......@@@@@@
    ..................
    ..................
    ..................
    ..................
    ..................
    ..................
    ..................

    right-bearing: 4


0x69:
'i':
    ..............
    ..............
    ..............
    ..............
    ..............
    ..............
    ..............
    ......@@......
    ......@@......
    ......@@......
    ......@@......
    ..............
    ..............
    ..@@@@@@......
    ..@@@@@@......
    ......@@......
    ......@@......
    ......@@......
    ......@@......
    ......@@......
    ......@@......
    ......@@......
    ......@@......
    ......@@......
    ......@@......
    ......@@......
    ......@@......
    @@@@@@@@@@@@@@
    @@@@@@@@@@@@@@
    ..............
    ..............
    ..............
    ..............
    ..............
    ..............
    ..............

    right-bearing: 8


0x6a:
'j':
    ............
    ............
    ............
    ............
    ............
    ............
    ............
    ........@@..
    ........@@..
    ........@@..
    ........@@..
    ............
    ............
    @@@@@@@@@@@@
    @@@@@@@@@@@@
    ..........@@
    ..........@@
    ..........@@
    ..........@@
    ..........@@
    ..........@@
    ..........@@
    ..........@@
    ..........@@
    ..........@@
    ..........@@
    ..........@@
    ..........@@
    ..........@@
    ..........@@
    ..........@@
    ..........@@
    .........@@.
    ........@@@.
    @@@@@@@@@@..
    @@@@@@@@....

    right-bearing: 10


0x6b:
'k':
    ..................
    ..................
    ..................
    ..................
    ..................
    @@@@..............
    @@@@..............
    ..@@..............
    ..@@..............
    ..@@..............
    ..@@..............
    ..@@..............
    ..@@..............
    ..@@....@@@@@@@@..
    ..@@....@@@@@@@@..
    ..@@......@@......
    ..@@.....@@.......
    ..@@....@@........
    ..@@...@@.........
    ..@@@@@@..........
    ..@@@@@@@.........
    ..@@....@@........
    ..@@.....@@.......
    ..@@......@@......
    ..@@.......@@.....
    ..@@........@@....
    ..@@.........@@...
    @@@@......@@@@@@@@
    @@@@......@@@@@@@@
    ..................
    ..................
    ..................
    ..................
    ..................
    ..................
    ..................

    right-bearing: 4


0x6c:
'l':
    ..............
    ..............
    ..............
    ..............
    ..............
    @@@@@@@@......
    @@@@@@@@......
    ......@@......
    ......@@......
    ......@@......
    ......@@......
    ......@@......
    ......@@......
    ......@@......
    ......@@......
    ......@@......
    ......@@......
    ......@@......
    ......@@......
    ......@@......
    ......@@......
    ......@@......
    ......@@......
    ......@@......
    ......@@......
    ......@@......
    ......@@......
    @@@@@@@@@@@@@@
    @@@@@@@@@@@@@@
    ..............
    ..............
    ..............
    ..............
    ..............
    ..............
    ..............

    right-bearing: 8


0x6d:
'm':
    ......................
    ......................
    ......................
    ......................
    ......................
    ......................
    ......................
    ......................
    ......................
    ......................
    ......................
    ......................
    ......................
    @@@@..@@@.....@@@.....
    @@@@.@@@@@...@@@@@....
    ..@@@@...@@@@@...@@...
    ..@@@.....@@@.....@@..
    ..@@......@@......@@..
    ..@@......@@......@@..
    ..@@......@@......@@..
    ..@@......@@......@@..
    ..@@......@@......@@..
    ..@@......@@......@@..
    ..@@......@@......@@..
    ..@@......@@......@@..
    ..@@......@@......@@..
    ..@@......@@......@@..
    @@@@@@....@@@@....@@@@
    @@@@@@....@@@@....@@@@
    ......................
    ......................
    ......................
    ......................
    ......................
    ......................
    ......................



0x6e:
'n':
    ..................
    ..................
    ..................
    ..................
    ..................
    ..................
    ..................
    ..................
    ..................
    ..................
    ..................
    ..................
    ..................
    @@@@...@@@@@......
    @@@@.@@@@@@@@@....
    ..@@@@@.....@@@...
    ..@@@........@@...
    ..@@..........@@..
    ..@@..........@@..
    ..@@..........@@..
    ..@@..........@@..
    ..@@..........@@..
    ..@@..........@@..
    ..@@..........@@..
    ..@@..........@@..
    ..@@..........@@..
    ..@@..........@@..
    @@@@@@......@@@@@@
    @@@@@@......@@@@@@
    ..................
    ..................
    ..................
    ..................
    ..................
    ..................
    ..................

    right-bearing: 4


0x6f:
'o':
    ................
    ................
    ................
    ................
    ................
    ................
    ................
    ................
    ................
    ................
    ................
    ................
    ................
    .....@@@@@@.....
    ...@@@@@@@@@@...
    ..@@@......@@@..
    .@@..........@@.
    .@@..........@@.
    @@............@@
    @@............@@
    @@............@@
    @@............@@
    @@............@@
    @@............@@
    .@@..........@@.
    .@@..........@@.
    ..@@@......@@@..
    ...@@@@@@@@@@...
    .....@@@@@@.....
    ................
    ................
    ................
    ................
    ................
    ................
    ................

    right-bearing: 6


0x70:
'p':
    ..................
    ..................
    ..................
    ..................
    ..................
    ..................
    ..................
    ..................
    ..................
    ..................
    ..................
    ..................
    ..................
    @@@@...@@@@@@.....
    @@@@.@@@@@@@@@@...
    ..@@@@@......@@@..
    ..@@@..........@@.
    ..@@...........@@.
    ..@@............@@
    ..@@............@@
    ..@@............@@
    ..@@............@@
    ..@@............@@
    ..@@............@@
    ..@@...........@@.
    ..@@@..........@@.
    ..@@@@@......@@@..
    ..@@.@@@@@@@@@@...
    ..@@...@@@@@@.....
    ..@@..............
    ..@@..............
    ..@@..............
    ..@@..............
    ..@@..............
    @@@@@@@@..........
    @@@@@@@@..........

    right-bearing: 4


0x71:
'q':
    ..................
    ..................
    ..................
    ..................
    ..................
    ..................
    ..................
    ..................
    ..................
    ..................
    ..................
    ..................
    ..................
    .....@@@@@@...@@@@
    ...@@@@@@@@@@.@@@@
    ..@@@......@@@@@..
    .@@..........@@@..
    .@@...........@@..
    @@............@@..
    @@............@@..
    @@............@@..
    @@............@@..
    @@............@@..
    @@............@@..
    .@@...........@@..
    .@@..........@@@..
    ..@@@......@@@@@..
    ...@@@@@@@@@@.@@..
    .....@@@@@@...@@..
    ..............@@..
    ..............@@..
    ..............@@..
    ..............@@..
    ..............@@..
    ..........@@@@@@@@
    ..........@@@@@@@@

    right-bearing: 4


0x72:
'r':
    ................
    ................
    ................
    ................
    ................
    ................
    ................
    ................
    ................
    ................
    ................
    ................
    ................
    @@@@@@...@@@@...
    @@@@@@.@@@@@@@..
    ....@@@@@....@@.
    ....@@@.......@@
    ....@@..........
    ....@@..........
    ....@@..........
    ....@@..........
    ....@@..........
    ....@@..........
    ....@@..........
    ....@@..........
    ....@@..........
    ....@@..........
    @@@@@@@@@@@@@@..
    @@@@@@@@@@@@@@..
    ................
    ................
    ................
    ................
    ................
    ................
    ................

    right-bearing: 6


0x73:
's':
    ..............
    ..............
    ..............
    ..............
    ..............
    ..............
    ..............
    ..............
    ..............
    ..............
    ..............
    ..............
    ..............
    ...@@@@@@...@@
    ..@@@@@@@@@.@@
    .@@......@@@@@
    .@@.......@@@@
    .@@.........@@
    ..@@@@......@@
    ...@@@@@@.....
    ......@@@@@...
    .........@@@@.
    ...........@@.
    @@..........@@
    @@..........@@
    @@@.........@@
    @@@@@......@@.
    @@.@@@@@@@@@@.
    @@..@@@@@@@...
    ..............
    ..............
    ..............
    ..............
    ..............
    ..............
    ..............

    right-bearing: 8


0x74:
't':
    ................
    ................
    ................
    ................
    ................
    ................
    ................
    ....@@..........
    ....@@..........
    ....@@..........
    ....@@..........
    ....@@..........
    ....@@..........
    @@@@@@@@@@@@@@..
    @@@@@@@@@@@@@@..
    ....@@..........
    ....@@..........
    ....@@..........
    ....@@..........
    ....@@..........
    ....@@..........
    ....@@..........
    ....@@..........
    ....@@..........
    ....@@..........
    ....@@........@@
    .....@@......@@.
    .....@@@@@@@@@@.
    .......@@@@@@...
    ................
    ................
    ................
    ................
    ................
    ................
    ................

    right-bearing: 6


0x75:
'u':
    ..................
    ..................
    ..................
    ..................
    ..................
    ..................
    ..................
    ..................
    ..................
    ..................
    ..................
    ..................
    ..................
    @@@@........@@@@..
    @@@@........@@@@..
    ..@@..........@@..
    ..@@..........@@..
    ..@@..........@@..
    ..@@..........@@..
    ..@@..........@@..
    ..@@..........@@..
    ..@@..........@@..
    ..@@..........@@..
    ..@@..........@@..
    ..@@..........@@..
    ..@@.........@@@..
    ...@@......@@@@@..
    ...@@@@@@@@@@.@@@@
    .....@@@@@@...@@@@
    ..................
    ..................
    ..................
    ..................
    ..................
    ..................
    ..................

    right-bearing: 4


0x76:
'v':
    ..................
    ..................
    ..................
    ..................
    ..................
    ..................
    ..................
    ..................
    ..................
    ..................
    ..................
    ..................
    ..................
    @@@@@@......@@@@@@
    @@@@@@......@@@@@@
    ..@@..........@@..
    ..@@..........@@..
    ...@@........@@...
    ...@@........@@...
    ....@@......@@....
    ....@@......@@....
    .....@@....@@.....
    .....@@....@@.....
    ......@@..@@......
    ......@@..@@......
    .......@@@@.......
    .......@@@@.......
    ........@@........
    ........@@........
    ..................
    ..................
    ..................
    ..................
    ..................
    ..................
    ..................

    right-bearing: 4


0x77:
'w':
    ..................
    ..................
    ..................
    ..................
    ..................
    ..................
    ..................
    ..................
    ..................
    ..................
    ..................
    ..................
    ..................
    @@@@@@......@@@@@@
    @@@@@@......@@@@@@
    ..@@..........@@..
    ..@@..........@@..
    ..@@....@@....@@..
    ..@@....@@....@@..
    ..@@....@@....@@..
    ...@@..@@@@..@@...
    ...@@..@@@@..@@...
    ...@@.@@..@@.@@...
    ...@@.@@..@@.@@...
    ...@@.@@..@@.@@...
    ....@@@....@@@....
    ....@@@....@@@....
    ....@@......@@....
    ....@@......@@....
    ..................
    ..................
    ..................
    ..................
    ..................
    ..................
    ..................

    right-bearing: 4


0x78:
'x':
    ................
    ................
    ................
    ................
    ................
    ................
    ................
    ................
    ................
    ................
    ................
    ................
    ................
    @@@@@@....@@@@@@
    @@@@@@....@@@@@@
    ..@@........@@..
    ...@@......@@...
    ....@@....@@....
    .....@@..@@.....
    ......@@@@......
    .......@@.......
    ......@@@@......
    .....@@..@@.....
    ....@@....@@....
    ...@@......@@...
    ..@@........@@..
    .@@..........@@.
    @@@@@@....@@@@@@
    @@@@@@....@@@@@@
    ................
    ................
    ................
    ................
    ................
    ................
    ................

    right-bearing: 6


0x79:
'y':
    ..................
    ..................
    ..................
    ..................
    ..................
    ..................
    ..................
    ..................
    ..................
    ..................
    ..................
    ..................
    ..................
    @@@@@@......@@@@@@
    @@@@@@......@@@@@@
    ..@@..........@@..
    ..@@..........@@..
    ...@@........@@...
    ...@@........@@...
    ....@@......@@....
    ....@@......@@....
    .....@@....@@.....
    .....@@....@@.....
    ......@@..@@......
    ......@@..@@......
    .......@@@@.......
    .......@@@@.......
    ........@@........
    ........@@........
    ........@@........
    .......@@.........
    .......@@.........
    ......@@..........
    ......@@..........
    @@@@@@@@@@........
    @@@@@@@@@@........

    right-bearing: 4


0x7a:
'z':
    ..............
    ..............
    ..............
    ..............
    ..............
    ..............
    ..............
    ..............
    ..............
    ..............
    ..............
    ..............
    ..............
    @@@@@@@@@@@@@@
    @@@@@@@@@@@@@@
    @@..........@@
    @@.........@@.
    @@........@@..
    @@.......@@...
    ........@@....
    .......@@.....
    ......@@......
    .....@@.......
    ....@@......@@
    ...@@.......@@
    ..@@........@@
    .@@.........@@
    @@@@@@@@@@@@@@
    @@@@@@@@@@@@@@
    ..............
    ..............
    ..............
    ..............
    ..............
    ..............
    ..............

    right-bearing: 8


0x7b:
'{':
    ..........
    ..........
    ..........
    ..........
    ..........
    .......@@@
    .....@@@@@
    .....@@...
    ....@@....
    ....@@....
    ....@@....
    ....@@....
    ....@@....
    ....@@....
    ....@@....
    ...@@.....
    ...@@.....
    @@@@......
    @@@@......
    ...@@.....
    ...@@.....
    ....@@....
    ....@@....
    ....@@....
    ....@@....
    ....@@....
    ....@@....
    ....@@....
    ....@@....
    ....@@....
    ....@@....
    ....@@....
    .....@@...
    .....@@@@@
    .......@@@
    ..........

    right-bearing: 12


0x7c:
'|':
    ..
    ..
    ..
    ..
    ..
    @@
    @@
    @@
    @@
    @@
    @@
    @@
    @@
    @@
    @@
    @@
    @@
    @@
    @@
    @@
    @@
    @@
    @@
    @@
    @@
    @@
    @@
    @@
    @@
    @@
    @@
    @@
    @@
    @@
    @@
    ..

    right-bearing: 20


0x7d:
'}':
    ..........
    ..........
    ..........
    ..........
    ..........
    @@@.......
    @@@@@.....
    ...@@.....
    ....@@....
    ....@@....
    ....@@....
    ....@@....
    ....@@....
    ....@@....
    ....@@....
    .....@@...
    .....@@...
    ......@@@@
    ......@@@@
    .....@@...
    .....@@...
    ....@@....
    ....@@....
    ....@@....
    ....@@....
    ....@@....
    ....@@....
    ....@@....
    ....@@....
    ....@@....
    ....@@....
    ....@@....
    ...@@.....
    @@@@@.....
    @@@.......
    ..........

    right-bearing: 12


0x7e:
'~':
    ................
    ................
    ................
    ................
    ................
    ................
    ................
    ................
    ................
    ................
    ................
    ................
    ................
    ................
    ................
    ...@@@..........
    .@@@@@@@........
    @@@...@@@.....@@
    @@.....@@@...@@@
    ........@@@@@@@.
    ..........@@@...
    ................
    ................
    ................
    ................
    ................
    ................
    ................
    ................
    ................
    ................
    ................
    ................
    ................
    ................
    ................

    right-bearing: 6


0x7f:
    ..................
    ..................
    ..................
    @@@@@@@@@@@@@@@@@@
    @@@@@@@@@@@@@@@@@@
    @@..............@@
    @@..............@@
    @@..............@@
    @@..............@@
    @@..............@@
    @@..............@@
    @@..............@@
    @@..............@@
    @@..............@@
    @@..............@@
    @@..............@@
    @@..............@@
    @@..............@@
    @@..............@@
    @@..............@@
    @@..............@@
    @@..............@@
    @@..............@@
    @@..............@@
    @@..............@@
    @@..............@@
    @@..............@@
    @@..............@@
    @@..............@@
    @@..............@@
    @@..............@@
    @@..............@@
    @@..............@@
    @@@@@@@@@@@@@@@@@@
    @@@@@@@@@@@@@@@@@@
    ..................

    right-bearing: 4


0x80:
    ....................
    ....................
    ....................
    ....................
    ....................
    ....................
    ....................
    .........@@@@@@...@@
    .......@@@@@@@@@@.@@
    .....@@@@......@@@@@
    ....@@@..........@@@
    ....@@............@@
    ...@@..............@
    ...@@...............
    ..@@................
    @@@@@@@@@@@.........
    .@@@@@@@@@..........
    ..@@................
    ..@@................
    @@@@@@@@@@..........
    .@@@@@@@@...........
    ..@@................
    ...@@...............
    ...@@.............@@
    ....@@............@@
    ....@@@..........@@.
    .....@@@@......@@@@.
    .......@@@@@@@@@@...
    .........@@@@@@.....
    ....................
    ....................
    ....................
    ....................
    ....................
    ....................
    ....................

    right-bearing: 2


0x81:
    ..................
    ..................
    ..................
    @@@@@@@@@@@@@@@@@@
    @@@@@@@@@@@@@@@@@@
    @@..............@@
    @@..............@@
    @@..............@@
    @@..............@@
    @@..............@@
    @@..............@@
    @@..............@@
    @@..............@@
    @@..............@@
    @@..............@@
    @@..............@@
    @@..............@@
    @@..............@@
    @@..............@@
    @@..............@@
    @@..............@@
    @@..............@@
    @@..............@@
    @@..............@@
    @@..............@@
    @@..............@@
    @@..............@@
    @@..............@@
    @@..............@@
    @@..............@@
    @@..............@@
    @@..............@@
    @@..............@@
    @@@@@@@@@@@@@@@@@@
    @@@@@@@@@@@@@@@@@@
    ..................

    right-bearing: 4


0x82:
    ..................
    ..................
    ..................
    @@@@@@@@@@@@@@@@@@
    @@@@@@@@@@@@@@@@@@
    @@..............@@
    @@..............@@
    @@..............@@
    @@..............@@
    @@..............@@
    @@..............@@
    @@..............@@
    @@..............@@
    @@..............@@
    @@..............@@
    @@..............@@
    @@..............@@
    @@..............@@
    @@..............@@
    @@..............@@
    @@..............@@
    @@..............@@
    @@..............@@
    @@..............@@
    @@..............@@
    @@..............@@
    @@..............@@
    @@..............@@
    @@..............@@
    @@..............@@
    @@..............@@
    @@..............@@
    @@..............@@
    @@@@@@@@@@@@@@@@@@
    @@@@@@@@@@@@@@@@@@
    ..................

    right-bearing: 4


0x83:
    ..................
    ..................
    ..................
    @@@@@@@@@@@@@@@@@@
    @@@@@@@@@@@@@@@@@@
    @@..............@@
    @@..............@@
    @@..............@@
    @@..............@@
    @@..............@@
    @@..............@@
    @@..............@@
    @@..............@@
    @@..............@@
    @@..............@@
    @@..............@@
    @@..............@@
    @@..............@@
    @@..............@@
    @@..............@@
    @@..............@@
    @@..............@@
    @@..............@@
    @@..............@@
    @@..............@@
    @@..............@@
    @@..............@@
    @@..............@@
    @@..............@@
    @@..............@@
    @@..............@@
    @@..............@@
    @@..............@@
    @@@@@@@@@@@@@@@@@@
    @@@@@@@@@@@@@@@@@@
    ..................

    right-bearing: 4


0x84:
    ..................
    ..................
    ..................
    @@@@@@@@@@@@@@@@@@
    @@@@@@@@@@@@@@@@@@
    @@..............@@
    @@..............@@
    @@..............@@
    @@..............@@
    @@..............@@
    @@..............@@
    @@..............@@
    @@..............@@
    @@..............@@
    @@..............@@
    @@..............@@
    @@..............@@
    @@..............@@
    @@..............@@
    @@..............@@
    @@..............@@
    @@..............@@
    @@..............@@
    @@..............@@
    @@..............@@
    @@..............@@
    @@..............@@
    @@..............@@
    @@..............@@
    @@..............@@
    @@..............@@
    @@..............@@
    @@..............@@
    @@@@@@@@@@@@@@@@@@
    @@@@@@@@@@@@@@@@@@
    ..................

    right-bearing: 4


0x85:
    ..................
    ..................
    ..................
    @@@@@@@@@@@@@@@@@@
    @@@@@@@@@@@@@@@@@@
    @@..............@@
    @@..............@@
    @@..............@@
    @@..............@@
    @@..............@@
    @@..............@@
    @@..............@@
    @@..............@@
    @@..............@@
    @@..............@@
    @@..............@@
    @@..............@@
    @@..............@@
    @@..............@@
    @@..............@@
    @@..............@@
    @@..............@@
    @@..............@@
    @@..............@@
    @@..............@@
    @@..............@@
    @@..............@@
    @@..............@@
    @@..............@@
    @@..............@@
    @@..............@@
    @@..............@@
    @@..............@@
    @@@@@@@@@@@@@@@@@@
    @@@@@@@@@@@@@@@@@@
    ..................

    right-bearing: 4


0x86:
    ..................
    ..................
    ..................
    @@@@@@@@@@@@@@@@@@
    @@@@@@@@@@@@@@@@@@
    @@..............@@
    @@..............@@
    @@..............@@
    @@..............@@
    @@..............@@
    @@..............@@
    @@..............@@
    @@..............@@
    @@..............@@
    @@..............@@
    @@..............@@
    @@..............@@
    @@..............@@
    @@..............@@
    @@..............@@
    @@..............@@
    @@..............@@
    @@..............@@
    @@..............@@
    @@..............@@
    @@..............@@
    @@..............@@
    @@..............@@
    @@..............@@
    @@..............@@
    @@..............@@
    @@..............@@
    @@..............@@
    @@@@@@@@@@@@@@@@@@
    @@@@@@@@@@@@@@@@@@
    ..................

    right-bearing: 4


0x87:
    ..................
    ..................
    ..................
    @@@@@@@@@@@@@@@@@@
    @@@@@@@@@@@@@@@@@@
    @@..............@@
    @@..............@@
    @@..............@@
    @@..............@@
    @@..............@@
    @@..............@@
    @@..............@@
    @@..............@@
    @@..............@@
    @@..............@@
    @@..............@@
    @@..............@@
    @@..............@@
    @@..............@@
    @@..............@@
    @@..............@@
    @@..............@@
    @@..............@@
    @@..............@@
    @@..............@@
    @@..............@@
    @@..............@@
    @@..............@@
    @@..............@@
    @@..............@@
    @@..............@@
    @@..............@@
    @@..............@@
    @@@@@@@@@@@@@@@@@@
    @@@@@@@@@@@@@@@@@@
    ..................

    right-bearing: 4


0x88:
    ..................
    ..................
    ..................
    @@@@@@@@@@@@@@@@@@
    @@@@@@@@@@@@@@@@@@
    @@..............@@
    @@..............@@
    @@..............@@
    @@..............@@
    @@..............@@
    @@..............@@
    @@..............@@
    @@..............@@
    @@..............@@
    @@..............@@
    @@..............@@
    @@..............@@
    @@..............@@
    @@..............@@
    @@..............@@
    @@..............@@
    @@..............@@
    @@..............@@
    @@..............@@
    @@..............@@
    @@..............@@
    @@..............@@
    @@..............@@
    @@..............@@
    @@..............@@
    @@..............@@
    @@..............@@
    @@..............@@
    @@@@@@@@@@@@@@@@@@
    @@@@@@@@@@@@@@@@@@
    ..................

    right-bearing: 4


0x89:
    ..................
    ..................
    ..................
    @@@@@@@@@@@@@@@@@@
    @@@@@@@@@@@@@@@@@@
    @@..............@@
    @@..............@@
    @@..............@@
    @@..............@@
    @@..............@@
    @@..............@@
    @@..............@@
    @@..............@@
    @@..............@@
    @@..............@@
    @@..............@@
    @@..............@@
    @@..............@@
    @@..............@@
    @@..............@@
    @@..............@@
    @@..............@@
    @@..............@@
    @@..............@@
    @@..............@@
    @@..............@@
    @@..............@@
    @@..............@@
    @@..............@@
    @@..............@@
    @@..............@@
    @@..............@@
    @@..............@@
    @@@@@@@@@@@@@@@@@@
    @@@@@@@@@@@@@@@@@@
    ..................

    right-bearing: 4


0x8a:
    ..................
    ..................
    ..................
    @@@@@@@@@@@@@@@@@@
    @@@@@@@@@@@@@@@@@@
    @@..............@@
    @@..............@@
    @@..............@@
    @@..............@@
    @@..............@@
    @@..............@@
    @@..............@@
    @@..............@@
    @@..............@@
    @@..............@@
    @@..............@@
    @@..............@@
    @@..............@@
    @@..............@@
    @@..............@@
    @@..............@@
    @@..............@@
    @@..............@@
    @@..............@@
    @@..............@@
    @@..............@@
    @@..............@@
    @@..............@@
    @@..............@@
    @@..............@@
    @@..............@@
    @@..............@@
    @@..............@@
    @@@@@@@@@@@@@@@@@@
    @@@@@@@@@@@@@@@@@@
    ..................

    right-bearing: 4


0x8b:
    ..................
    ..................
    ..................
    @@@@@@@@@@@@@@@@@@
    @@@@@@@@@@@@@@@@@@
    @@..............@@
    @@..............@@
    @@..............@@
    @@..............@@
    @@..............@@
    @@..............@@
    @@..............@@
    @@..............@@
    @@..............@@
    @@..............@@
    @@..............@@
    @@..............@@
    @@..............@@
    @@..............@@
    @@..............@@
    @@..............@@
    @@..............@@
    @@..............@@
    @@..............@@
    @@..............@@
    @@..............@@
    @@..............@@
    @@..............@@
    @@..............@@
    @@..............@@
    @@..............@@
    @@..............@@
    @@..............@@
    @@@@@@@@@@@@@@@@@@
    @@@@@@@@@@@@@@@@@@
    ..................

    right-bearing: 4


0x8c:
    ..................
    ..................
    ..................
    @@@@@@@@@@@@@@@@@@
    @@@@@@@@@@@@@@@@@@
    @@..............@@
    @@..............@@
    @@..............@@
    @@..............@@
    @@..............@@
    @@..............@@
    @@..............@@
    @@..............@@
    @@..............@@
    @@..............@@
    @@..............@@
    @@..............@@
    @@..............@@
    @@..............@@
    @@..............@@
    @@..............@@
    @@..............@@
    @@..............@@
    @@..............@@
    @@..............@@
    @@..............@@
    @@..............@@
    @@..............@@
    @@..............@@
    @@..............@@
    @@..............@@
    @@..............@@
    @@..............@@
    @@@@@@@@@@@@@@@@@@
    @@@@@@@@@@@@@@@@@@
    ..................

    right-bearing: 4


0x8d:
    ..................
    ..................
    ..................
    @@@@@@@@@@@@@@@@@@
    @@@@@@@@@@@@@@@@@@
    @@..............@@
    @@..............@@
    @@..............@@
    @@..............@@
    @@..............@@
    @@..............@@
    @@..............@@
    @@..............@@
    @@..............@@
    @@..............@@
    @@..............@@
    @@..............@@
    @@..............@@
    @@..............@@
    @@..............@@
    @@..............@@
    @@..............@@
    @@..............@@
    @@..............@@
    @@..............@@
    @@..............@@
    @@..............@@
    @@..............@@
    @@..............@@
    @@..............@@
    @@..............@@
    @@..............@@
    @@..............@@
    @@@@@@@@@@@@@@@@@@
    @@@@@@@@@@@@@@@@@@
    ..................

    right-bearing: 4


0x8e:
    ..................
    ..................
    ..................
    @@@@@@@@@@@@@@@@@@
    @@@@@@@@@@@@@@@@@@
    @@..............@@
    @@..............@@
    @@..............@@
    @@..............@@
    @@..............@@
    @@..............@@
    @@..............@@
    @@..............@@
    @@..............@@
    @@..............@@
    @@..............@@
    @@..............@@
    @@..............@@
    @@..............@@
    @@..............@@
    @@..............@@
    @@..............@@
    @@..............@@
    @@..............@@
    @@..............@@
    @@..............@@
    @@..............@@
    @@..............@@
    @@..............@@
    @@..............@@
    @@..............@@
    @@..............@@
    @@..............@@
    @@@@@@@@@@@@@@@@@@
    @@@@@@@@@@@@@@@@@@
    ..................

    right-bearing: 4


0x8f:
    ..................
    ..................
    ..................
    @@@@@@@@@@@@@@@@@@
    @@@@@@@@@@@@@@@@@@
    @@..............@@
    @@..............@@
    @@..............@@
    @@..............@@
    @@..............@@
    @@..............@@
    @@..............@@
    @@..............@@
    @@..............@@
    @@..............@@
    @@..............@@
    @@..............@@
    @@..............@@
    @@..............@@
    @@..............@@
    @@..............@@
    @@..............@@
    @@..............@@
    @@..............@@
    @@..............@@
    @@..............@@
    @@..............@@
    @@..............@@
    @@..............@@
    @@..............@@
    @@..............@@
    @@..............@@
    @@..............@@
    @@@@@@@@@@@@@@@@@@
    @@@@@@@@@@@@@@@@@@
    ..................

    right-bearing: 4


0x90:
    ..................
    ..................
    ..................
    @@@@@@@@@@@@@@@@@@
    @@@@@@@@@@@@@@@@@@
    @@..............@@
    @@..............@@
    @@..............@@
    @@..............@@
    @@..............@@
    @@..............@@
    @@..............@@
    @@..............@@
    @@..............@@
    @@..............@@
    @@..............@@
    @@..............@@
    @@..............@@
    @@..............@@
    @@..............@@
    @@..............@@
    @@..............@@
    @@..............@@
    @@..............@@
    @@..............@@
    @@..............@@
    @@..............@@
    @@..............@@
    @@..............@@
    @@..............@@
    @@..............@@
    @@..............@@
    @@..............@@
    @@@@@@@@@@@@@@@@@@
    @@@@@@@@@@@@@@@@@@
    ..................

    right-bearing: 4


0x91:
    ..................
    ..................
    ..................
    @@@@@@@@@@@@@@@@@@
    @@@@@@@@@@@@@@@@@@
    @@..............@@
    @@..............@@
    @@..............@@
    @@..............@@
    @@..............@@
    @@..............@@
    @@..............@@
    @@..............@@
    @@..............@@
    @@..............@@
    @@..............@@
    @@..............@@
    @@..............@@
    @@..............@@
    @@..............@@
    @@..............@@
    @@..............@@
    @@..............@@
    @@..............@@
    @@..............@@
    @@..............@@
    @@..............@@
    @@..............@@
    @@..............@@
    @@..............@@
    @@..............@@
    @@..............@@
    @@..............@@
    @@@@@@@@@@@@@@@@@@
    @@@@@@@@@@@@@@@@@@
    ..................

    right-bearing: 4


0x92:
    ..................
    ..................
    ..................
    @@@@@@@@@@@@@@@@@@
    @@@@@@@@@@@@@@@@@@
    @@..............@@
    @@..............@@
    @@..............@@
    @@..............@@
    @@..............@@
    @@..............@@
    @@..............@@
    @@..............@@
    @@..............@@
    @@..............@@
    @@..............@@
    @@..............@@
    @@..............@@
    @@..............@@
    @@..............@@
    @@..............@@
    @@..............@@
    @@..............@@
    @@..............@@
    @@..............@@
    @@..............@@
    @@..............@@
    @@..............@@
    @@..............@@
    @@..............@@
    @@..............@@
    @@..............@@
    @@..............@@
    @@@@@@@@@@@@@@@@@@
    @@@@@@@@@@@@@@@@@@
    ..................

    right-bearing: 4


0x93:
    ..................
    ..................
    ..................
    @@@@@@@@@@@@@@@@@@
    @@@@@@@@@@@@@@@@@@
    @@..............@@
    @@..............@@
    @@..............@@
    @@..............@@
    @@..............@@
    @@..............@@
    @@..............@@
    @@..............@@
    @@..............@@
    @@..............@@
    @@..............@@
    @@..............@@
    @@..............@@
    @@..............@@
    @@..............@@
    @@..............@@
    @@..............@@
    @@..............@@
    @@..............@@
    @@..............@@
    @@..............@@
    @@..............@@
    @@..............@@
    @@..............@@
    @@..............@@
    @@..............@@
    @@..............@@
    @@..............@@
    @@@@@@@@@@@@@@@@@@
    @@@@@@@@@@@@@@@@@@
    ..................

    right-bearing: 4


0x94:
    ..................
    ..................
    ..................
    @@@@@@@@@@@@@@@@@@
    @@@@@@@@@@@@@@@@@@
    @@..............@@
    @@..............@@
    @@..............@@
    @@..............@@
    @@..............@@
    @@..............@@
    @@..............@@
    @@..............@@
    @@..............@@
    @@..............@@
    @@..............@@
    @@..............@@
    @@..............@@
    @@..............@@
    @@..............@@
    @@..............@@
    @@..............@@
    @@..............@@
    @@..............@@
    @@..............@@
    @@..............@@
    @@..............@@
    @@..............@@
    @@..............@@
    @@..............@@
    @@..............@@
    @@..............@@
    @@..............@@
    @@@@@@@@@@@@@@@@@@
    @@@@@@@@@@@@@@@@@@
    ..................

    right-bearing: 4


0x95:
    ..................
    ..................
    ..................
    @@@@@@@@@@@@@@@@@@
    @@@@@@@@@@@@@@@@@@
    @@..............@@
    @@..............@@
    @@..............@@
    @@..............@@
    @@..............@@
    @@..............@@
    @@..............@@
    @@..............@@
    @@..............@@
    @@..............@@
    @@..............@@
    @@..............@@
    @@..............@@
    @@..............@@
    @@..............@@
    @@..............@@
    @@..............@@
    @@..............@@
    @@..............@@
    @@..............@@
    @@..............@@
    @@..............@@
    @@..............@@
    @@..............@@
    @@..............@@
    @@..............@@
    @@..............@@
    @@..............@@
    @@@@@@@@@@@@@@@@@@
    @@@@@@@@@@@@@@@@@@
    ..................

    right-bearing: 4


0x96:
    ..................
    ..................
    ..................
    @@@@@@@@@@@@@@@@@@
    @@@@@@@@@@@@@@@@@@
    @@..............@@
    @@..............@@
    @@..............@@
    @@..............@@
    @@..............@@
    @@..............@@
    @@..............@@
    @@..............@@
    @@..............@@
    @@..............@@
    @@..............@@
    @@..............@@
    @@..............@@
    @@..............@@
    @@..............@@
    @@..............@@
    @@..............@@
    @@..............@@
    @@..............@@
    @@..............@@
    @@..............@@
    @@..............@@
    @@..............@@
    @@..............@@
    @@..............@@
    @@..............@@
    @@..............@@
    @@..............@@
    @@@@@@@@@@@@@@@@@@
    @@@@@@@@@@@@@@@@@@
    ..................

    right-bearing: 4


0x97:
    ..................
    ..................
    ..................
    @@@@@@@@@@@@@@@@@@
    @@@@@@@@@@@@@@@@@@
    @@..............@@
    @@..............@@
    @@..............@@
    @@..............@@
    @@..............@@
    @@..............@@
    @@..............@@
    @@..............@@
    @@..............@@
    @@..............@@
    @@..............@@
    @@..............@@
    @@..............@@
    @@..............@@
    @@..............@@
    @@..............@@
    @@..............@@
    @@..............@@
    @@..............@@
    @@..............@@
    @@..............@@
    @@..............@@
    @@..............@@
    @@..............@@
    @@..............@@
    @@..............@@
    @@..............@@
    @@..............@@
    @@@@@@@@@@@@@@@@@@
    @@@@@@@@@@@@@@@@@@
    ..................

    right-bearing: 4


0x98:
    ..................
    ..................
    ..................
    @@@@@@@@@@@@@@@@@@
    @@@@@@@@@@@@@@@@@@
    @@..............@@
    @@..............@@
    @@..............@@
    @@..............@@
    @@..............@@
    @@..............@@
    @@..............@@
    @@..............@@
    @@..............@@
    @@..............@@
    @@..............@@
    @@..............@@
    @@..............@@
    @@..............@@
    @@..............@@
    @@..............@@
    @@..............@@
    @@..............@@
    @@..............@@
    @@..............@@
    @@..............@@
    @@..............@@
    @@..............@@
    @@..............@@
    @@..............@@
    @@..............@@
    @@..............@@
    @@..............@@
    @@@@@@@@@@@@@@@@@@
    @@@@@@@@@@@@@@@@@@
    ..................

    right-bearing: 4


0x99:
    ..................
    ..................
    ..................
    @@@@@@@@@@@@@@@@@@
    @@@@@@@@@@@@@@@@@@
    @@..............@@
    @@..............@@
    @@..............@@
    @@..............@@
    @@..............@@
    @@..............@@
    @@..............@@
    @@..............@@
    @@..............@@
    @@..............@@
    @@..............@@
    @@..............@@
    @@..............@@
    @@..............@@
    @@..............@@
    @@..............@@
    @@..............@@
    @@..............@@
    @@..............@@
    @@..............@@
    @@..............@@
    @@..............@@
    @@..............@@
    @@..............@@
    @@..............@@
    @@..............@@
    @@..............@@
    @@..............@@
    @@@@@@@@@@@@@@@@@@
    @@@@@@@@@@@@@@@@@@
    ..................

    right-bearing: 4


0x9a:
    ..................
    ..................
    ..................
    @@@@@@@@@@@@@@@@@@
    @@@@@@@@@@@@@@@@@@
    @@..............@@
    @@..............@@
    @@..............@@
    @@..............@@
    @@..............@@
    @@..............@@
    @@..............@@
    @@..............@@
    @@..............@@
    @@..............@@
    @@..............@@
    @@..............@@
    @@..............@@
    @@..............@@
    @@..............@@
    @@..............@@
    @@..............@@
    @@..............@@
    @@..............@@
    @@..............@@
    @@..............@@
    @@..............@@
    @@..............@@
    @@..............@@
    @@..............@@
    @@..............@@
    @@..............@@
    @@..............@@
    @@@@@@@@@@@@@@@@@@
    @@@@@@@@@@@@@@@@@@
    ..................

    right-bearing: 4


0x9b:
    ..................
    ..................
    ..................
    @@@@@@@@@@@@@@@@@@
    @@@@@@@@@@@@@@@@@@
    @@..............@@
    @@..............@@
    @@..............@@
    @@..............@@
    @@..............@@
    @@..............@@
    @@..............@@
    @@..............@@
    @@..............@@
    @@..............@@
    @@..............@@
    @@..............@@
    @@..............@@
    @@..............@@
    @@..............@@
    @@..............@@
    @@..............@@
    @@..............@@
    @@..............@@
    @@..............@@
    @@..............@@
    @@..............@@
    @@..............@@
    @@..............@@
    @@..............@@
    @@..............@@
    @@..............@@
    @@..............@@
    @@@@@@@@@@@@@@@@@@
    @@@@@@@@@@@@@@@@@@
    ..................

    right-bearing: 4


0x9c:
    ..................
    ..................
    ..................
    @@@@@@@@@@@@@@@@@@
    @@@@@@@@@@@@@@@@@@
    @@..............@@
    @@..............@@
    @@..............@@
    @@..............@@
    @@..............@@
    @@..............@@
    @@..............@@
    @@..............@@
    @@..............@@
    @@..............@@
    @@..............@@
    @@..............@@
    @@..............@@
    @@..............@@
    @@..............@@
    @@..............@@
    @@..............@@
    @@..............@@
    @@..............@@
    @@..............@@
    @@..............@@
    @@..............@@
    @@..............@@
    @@..............@@
    @@..............@@
    @@..............@@
    @@..............@@
    @@..............@@
    @@@@@@@@@@@@@@@@@@
    @@@@@@@@@@@@@@@@@@
    ..................

    right-bearing: 4


0x9d:
    ..................
    ..................
    ..................
    @@@@@@@@@@@@@@@@@@
    @@@@@@@@@@@@@@@@@@
    @@..............@@
    @@..............@@
    @@..............@@
    @@..............@@
    @@..............@@
    @@..............@@
    @@..............@@
    @@..............@@
    @@..............@@
    @@..............@@
    @@..............@@
    @@..............@@
    @@..............@@
    @@..............@@
    @@..............@@
    @@..............@@
    @@..............@@
    @@..............@@
    @@..............@@
    @@..............@@
    @@..............@@
    @@..............@@
    @@..............@@
    @@..............@@
    @@..............@@
    @@..............@@
    @@..............@@
    @@..............@@
    @@@@@@@@@@@@@@@@@@
    @@@@@@@@@@@@@@@@@@
    ..................

    right-bearing: 4


0x9e:
    ..................
    ..................
    ..................
    @@@@@@@@@@@@@@@@@@
    @@@@@@@@@@@@@@@@@@
    @@..............@@
    @@..............@@
    @@..............@@
    @@..............@@
    @@..............@@
    @@..............@@
    @@..............@@
    @@..............@@
    @@..............@@
    @@..............@@
    @@..............@@
    @@..............@@
    @@..............@@
    @@..............@@
    @@..............@@
    @@..............@@
    @@..............@@
    @@..............@@
    @@..............@@
    @@..............@@
    @@..............@@
    @@..............@@
    @@..............@@
    @@..............@@
    @@..............@@
    @@..............@@
    @@..............@@
    @@..............@@
    @@@@@@@@@@@@@@@@@@
    @@@@@@@@@@@@@@@@@@
    ..................

    right-bearing: 4


0x9f:
    ..................
    ..................
    ..................
    @@@@@@@@@@@@@@@@@@
    @@@@@@@@@@@@@@@@@@
    @@..............@@
    @@..............@@
    @@..............@@
    @@..............@@
    @@..............@@
    @@..............@@
    @@..............@@
    @@..............@@
    @@..............@@
    @@..............@@
    @@..............@@
    @@..............@@
    @@..............@@
    @@..............@@
    @@..............@@
    @@..............@@
    @@..............@@
    @@..............@@
    @@..............@@
    @@..............@@
    @@..............@@
    @@..............@@
    @@..............@@
    @@..............@@
    @@..............@@
    @@..............@@
    @@..............@@
    @@..............@@
    @@@@@@@@@@@@@@@@@@
    @@@@@@@@@@@@@@@@@@
    ..................

    right-bearing: 4


0xa0:
'':
    -

    right-bearing: 22


0xa1:
'':
    ....
    ....
    ....
    ....
    ....
    ....
    ....
    ....
    ....
    ....
    ....
    ....
    .@@.
    @@@@
    @@@@
    .@@.
    ....
    ....
    ....
    ....
    .@@.
    .@@.
    .@@.
    .@@.
    .@@.
    .@@.
    @@@@
    @@@@
    @@@@
    @@@@
    @@@@
    @@@@
    @@@@
    @@@@
    @@@@
    .@@.

    right-bearing: 18


0xa2:
'':
    ............
    ............
    ............
    ............
    ............
    ......@@....
    ......@@....
    ......@@....
    ......@@....
    ......@@....
    ......@@....
    .....@@@@@.@
    ...@@@@@@@@@
    ..@@@....@@@
    .@@.......@@
    .@@.......@@
    @@........@@
    @@..........
    @@..........
    @@..........
    .@@.........
    .@@.......@@
    ..@@@....@@@
    ...@@@@@@@@.
    .....@@@@...
    ......@@....
    ......@@....
    ......@@....
    ......@@....
    ............
    ............
    ............
    ............
    ............
    ............
    ............

    right-bearing: 10


0xa3:
'':
    ................
    ................
    ................
    ................
    ................
    ................
    ................
    .......@@@@.....
    .....@@@@@@@@...
    .....@@....@@...
    ....@@......@@..
    ....@@..........
    ....@@..........
    ....@@..........
    .....@@.........
    .....@@.........
    ......@@........
    @@@@@@@@@@@@....
    @@@@@@@@@@@@....
    ......@@........
    .....@@.........
    .....@@.........
    ....@@..........
    ....@@........@@
    ...@@.........@@
    ...@@.........@@
    ..@@.........@@.
    ..@@@@@@@@@@@@@.
    ..@@@@@@@@@@@...
    ................
    ................
    ................
    ................
    ................
    ................
    ................

    right-bearing: 6


0xa4:
'':
    ....................
    ....................
    ....................
    ....................
    ....................
    ....................
    ....................
    .........@@@@@@...@@
    .......@@@@@@@@@@.@@
    .....@@@@......@@@@@
    ....@@@..........@@@
    ....@@............@@
    ...@@..............@
    ...@@...............
    ..@@................
    @@@@@@@@@@@.........
    .@@@@@@@@@..........
    ..@@................
    ..@@................
    @@@@@@@@@@..........
    .@@@@@@@@...........
    ..@@................
    ...@@...............
    ...@@.............@@
    ....@@............@@
    ....@@@..........@@.
    .....@@@@......@@@@.
    .......@@@@@@@@@@...
    .........@@@@@@.....
    ....................
    ....................
    ....................
    ....................
    ....................
    ....................
    ....................

    right-bearing: 2


0xa5:
'':
    ..................
    ..................
    ..................
    ..................
    ..................
    ..................
    ..................
    @@@@@@......@@@@@@
    @@@@@@......@@@@@@
    ..@@..........@@..
    ..@@..........@@..
    ...@@........@@...
    ...@@........@@...
    ....@@......@@....
    ....@@......@@....
    .....@@....@@.....
    .....@@....@@.....
    ......@@..@@......
    ......@@..@@......
    ..@@@@@@@@@@@@@@..
    ..@@@@@@@@@@@@@@..
    ........@@........
    ........@@........
    ..@@@@@@@@@@@@@@..
    ..@@@@@@@@@@@@@@..
    ........@@........
    ........@@........
    ....@@@@@@@@@@....
    ....@@@@@@@@@@....
    ..................
    ..................
    ..................
    ..................
    ..................
    ..................
    ..................

    right-bearing: 4


0xa6:
'':
    ..
    ..
    ..
    ..
    ..
    @@
    @@
    @@
    @@
    @@
    @@
    @@
    @@
    @@
    @@
    @@
    @@
    ..
    ..
    ..
    ..
    @@
    @@
    @@
    @@
    @@
    @@
    @@
    @@
    @@
    @@
    @@
    @@
    @@
    @@
    ..

    right-bearing: 20


0xa7:
'':
    ..............
    ..............
    ..............
    ..............
    ..............
    .....@@@@@@@@.
    ...@@@@@@@@@@@
    ...@@.......@@
    ..@@........@@
    ..@@........@@
    ..@@........@@
    ..@@..........
    ..@@..........
    ..@@@@@.......
    .@@@@@@@@.....
    @@.....@@@@...
    @@.......@@@..
    @@.........@@.
    @@@.........@@
    .@@@@.......@@
    ...@@@@.....@@
    .....@@@@@@@@.
    .......@@@@@..
    ..........@@..
    ..........@@..
    @@........@@..
    @@........@@..
    @@........@@..
    @@.......@@...
    @@@@@@@@@@@...
    .@@@@@@@@.....
    ..............
    ..............
    ..............
    ..............
    ..............

    right-bearing: 8


0xa8:
'':
    .........
    .........
    .........
    .........
    .........
    .........
    .........
    @@@...@@@
    @@@...@@@
    @@@...@@@
    .........
    .........
    .........
    .........
    .........
    .........
    .........
    .........
    .........
    .........
    .........
    .........
    .........
    .........
    .........
    .........
    .........
    .........
    .........
    .........
    .........
    .........
    .........
    .........
    .........
    .........

    right-bearing: 13


0xa9:
'':
    ....................
    ....................
    ....................
    ....................
    ....................
    ....................
    ....................
    .......@@@@@@.......
    .....@@@@@@@@@@.....
    ...@@@@......@@@@...
    ..@@@..........@@@..
    ..@@....@@@.@@..@@..
    .@@...@@@@@@@@...@@.
    .@@..@@@...@@@...@@.
    @@...@@.....@@....@@
    @@..@@............@@
    @@..@@............@@
    @@..@@............@@
    @@..@@............@@
    @@..@@............@@
    @@...@@...........@@
    @@...@@@....@@....@@
    .@@...@@@@@@@@...@@.
    .@@.....@@@@@....@@.
    ..@@............@@..
    ..@@@..........@@@..
    ...@@@@......@@@@...
    .....@@@@@@@@@@.....
    .......@@@@@@.......
    ....................
    ....................
    ....................
    ....................
    ....................
    ....................
    ....................

    right-bearing: 2


0xaa:
'':
    ............
    ............
    ............
    ............
    ............
    ............
    ............
    ..@@@@@@....
    .@@@@@@@@...
    @@......@@..
    ........@@..
    ..@@@@@@@@..
    .@@@@@@@@@..
    @@......@@..
    @@......@@..
    @@......@@..
    @@.....@@@..
    .@@@@@@@@@@@
    ..@@@@@..@@@
    ............
    ............
    @@@@@@@@@@@@
    @@@@@@@@@@@@
    ............
    ............
    ............
    ............
    ............
    ............
    ............
    ............
    ............
    ............
    ............
    ............
    ............

    right-bearing: 10


0xab:
'':
    ..................
    ..................
    ..................
    ..................
    ..................
    ..................
    ..................
    ..................
    ..................
    ..................
    ..................
    ..................
    ..................
    .......@@@.....@@@
    ......@@@.....@@@.
    .....@@@.....@@@..
    ....@@@.....@@@...
    ...@@@.....@@@....
    ..@@@.....@@@.....
    .@@@.....@@@......
    @@@.....@@@.......
    @@@.....@@@.......
    .@@@.....@@@......
    ..@@@.....@@@.....
    ...@@@.....@@@....
    ....@@@.....@@@...
    .....@@@.....@@@..
    ......@@@.....@@@.
    .......@@@.....@@@
    ..................
    ..................
    ..................
    ..................
    ..................
    ..................
    ..................

    right-bearing: 4


0xac:
'':
    ..................
    ..................
    ..................
    ..................
    ..................
    ..................
    ..................
    ..................
    ..................
    ..................
    ..................
    ..................
    ..................
    ..................
    ..................
    @@@@@@@@@@@@@@@@@@
    @@@@@@@@@@@@@@@@@@
    ................@@
    ................@@
    ................@@
    ................@@
    ................@@
    ................@@
    ..................
    ..................
    ..................
    ..................
    ..................
    ..................
    ..................
    ..................
    ..................
    ..................
    ..................
    ..................
    ..................

    right-bearing: 4


0xad:
u+00ad:
    ................
    ................
    ................
    ................
    ................
    ................
    ................
    ................
    ................
    ................
    ................
    ................
    ................
    ................
    ................
    ................
    ................
    @@@@@@@@@@@@@@@@
    @@@@@@@@@@@@@@@@
    ................
    ................
    ................
    ................
    ................
    ................
    ................
    ................
    ................
    ................
    ................
    ................
    ................
    ................
    ................
    ................
    ................

    right-bearing: 6


0xae:
'':
    ......................
    ......................
    ......................
    ......................
    ......................
    ......................
    ......................
    .......@@@@@@@@.......
    .....@@@@@@@@@@@@.....
    ...@@@@........@@@@...
    ..@@@............@@@..
    ..@@..@@@@@@@@....@@..
    .@@...@@@@@@@@@....@@.
    .@@...@@......@@...@@.
    @@....@@......@@....@@
    @@....@@......@@....@@
    @@....@@......@@....@@
    @@....@@@@@@@@@.....@@
    @@....@@@@@@@@......@@
    @@....@@...@@.......@@
    @@....@@....@@......@@
    @@....@@....@@......@@
    .@@...@@.....@@....@@.
    .@@...@@.....@@@...@@.
    ..@@..@@......@@..@@..
    ..@@@............@@@..
    ...@@@@........@@@@...
    .....@@@@@@@@@@@@.....
    .......@@@@@@@@.......
    ......................
    ......................
    ......................
    ......................
    ......................
    ......................
    ......................



0xaf:
'':
    ..........
    ..........
    ..........
    ..........
    ..........
    ..........
    ..........
    ..........
    ..........
    @@@@@@@@@@
    @@@@@@@@@@
    ..........
    ..........
    ..........
    ..........
    ..........
    ..........
    ..........
    ..........
    ..........
    ..........
    ..........
    ..........
    ..........
    ..........
    ..........
    ..........
    ..........
    ..........
    ..........
    ..........
    ..........
    ..........
    ..........
    ..........
    ..........

    right-bearing: 12


0xb0:
'':
    ..........
    ..........
    ..........
    ..........
    ..........
    ...@@@@...
    .@@@@@@@@.
    .@@....@@.
    @@......@@
    @@......@@
    @@......@@
    @@......@@
    .@@....@@.
    .@@@@@@@@.
    ...@@@@...
    ..........
    ..........
    ..........
    ..........
    ..........
    ..........
    ..........
    ..........
    ..........
    ..........
    ..........
    ..........
    ..........
    ..........
    ..........
    ..........
    ..........
    ..........
    ..........
    ..........
    ..........

    right-bearing: 12


0xb1:
'':
    ................
    ................
    ................
    ................
    ................
    ................
    ................
    ................
    ................
    .......@@.......
    .......@@.......
    .......@@.......
    .......@@.......
    .......@@.......
    .......@@.......
    @@@@@@@@@@@@@@@@
    @@@@@@@@@@@@@@@@
    .......@@.......
    .......@@.......
    .......@@.......
    .......@@.......
    .......@@.......
    .......@@.......
    ................
    ................
    @@@@@@@@@@@@@@@@
    @@@@@@@@@@@@@@@@
    ................
    ................
    ................
    ................
    ................
    ................
    ................
    ................
    ................

    right-bearing: 6


0xb2:
'':
    ..........
    ..........
    ..........
    ..........
    ..........
    ...@@@@...
    .@@@@@@@@.
    @@@....@@.
    @@......@@
    ........@@
    ........@@
    .......@@.
    ......@@..
    ....@@@...
    ...@@@....
    ..@@......
    .@@.....@@
    @@@@@@@@@@
    @@@@@@@@@@
    ..........
    ..........
    ..........
    ..........
    ..........
    ..........
    ..........
    ..........
    ..........
    ..........
    ..........
    ..........
    ..........
    ..........
    ..........
    ..........
    ..........

    right-bearing: 12


0xb3:
'':
    ..........
    ..........
    ..........
    ..........
    ..........
    ..@@@@@@..
    .@@@@@@@@.
    @@......@@
    ........@@
    ........@@
    .......@@.
    ....@@@@..
    ....@@@@@.
    ........@@
    ........@@
    ........@@
    @@......@@
    .@@@@@@@@.
    ..@@@@@@..
    ..........
    ..........
    ..........
    ..........
    ..........
    ..........
    ..........
    ..........
    ..........
    ..........
    ..........
    ..........
    ..........
    ..........
    ..........
    ..........
    ..........

    right-bearing: 12


0xb4:
'':
    ......
    ......
    ......
    ......
    ......
    ....@@
    ...@@@
    ..@@@.
    .@@@..
    @@@...
    @@....
    ......
    ......
    ......
    ......
    ......
    ......
    ......
    ......
    ......
    ......
    ......
    ......
    ......
    ......
    ......
    ......
    ......
    ......
    ......
    ......
    ......
    ......
    ......
    ......
    ......

    right-bearing: 16


0xb5:
'':
    ..................
    ..................
    ..................
    ..................
    ..................
    ..................
    ..................
    ..................
    ..................
    ..................
    ..................
    ..................
    ..................
    @@@@........@@@@..
    @@@@........@@@@..
    ..@@..........@@..
    ..@@..........@@..
    ..@@..........@@..
    ..@@..........@@..
    ..@@..........@@..
    ..@@..........@@..
    ..@@..........@@..
    ..@@..........@@..
    ..@@..........@@..
    ..@@..........@@..
    ..@@@........@@@..
    ..@@@@@....@@@@@..
    ..@@.@@@@@@@@.@@@@
    ..@@...@@@@...@@@@
    ..@@..............
    ..@@..............
    ..@@..............
    ..@@..............
    ..@@..............
    ..@@..............
    ..@@..............

    right-bearing: 4


0xb6:
'':
    ................
    ................
    ................
    ................
    ................
    ....@@@@@@@@@@@@
    ..@@@@@@@@@@@@@@
    .@@@....@@..@@..
    .@@.....@@..@@..
    @@@.....@@..@@..
    @@@.....@@..@@..
    @@@.....@@..@@..
    @@@.....@@..@@..
    @@@.....@@..@@..
    @@@.....@@..@@..
    .@@.....@@..@@..
    .@@@....@@..@@..
    ..@@@@@@@@..@@..
    ....@@@@@@..@@..
    ........@@..@@..
    ........@@..@@..
    ........@@..@@..
    ........@@..@@..
    ........@@..@@..
    ........@@..@@..
    ........@@..@@..
    ........@@..@@..
    ........@@..@@..
    ........@@..@@..
    ....@@@@@@..@@@@
    ....@@@@@@..@@@@
    ................
    ................
    ................
    ................
    ................

    right-bearing: 6


0xb7:
'':
    ..........
    ..........
    ..........
    ..........
    ..........
    ..........
    ..........
    ..........
    ..........
    ..........
    ..........
    ..........
    ..........
    ...@@@@...
    .@@@@@@@@.
    .@@@@@@@@.
    @@@@@@@@@@
    @@@@@@@@@@
    @@@@@@@@@@
    @@@@@@@@@@
    .@@@@@@@@.
    .@@@@@@@@.
    ...@@@@...
    ..........
    ..........
    ..........
    ..........
    ..........
    ..........
    ..........
    ..........
    ..........
    ..........
    ..........
    ..........
    ..........

    right-bearing: 12


0xb8:
'':
    ......
    ......
    ......
    ......
    ......
    ......
    ......
    ......
    ......
    ......
    ......
    ......
    ......
    ......
    ......
    ......
    ......
    ......
    ......
    ......
    ......
    ......
    ......
    ......
    ......
    ......
    ......
    ......
    ..@@..
    ..@@..
    ...@@.
    ....@@
    @@..@@
    @@@@@.
    .@@@..
    ......

    right-bearing: 16


0xb9:
'':
    ..........
    ..........
    ..........
    ..........
    ..........
    ....@@....
    ...@@@....
    @@@@@@....
    @@@.@@....
    ....@@....
    ....@@....
    ....@@....
    ....@@....
    ....@@....
    ....@@....
    ....@@....
    ....@@....
    @@@@@@@@@@
    @@@@@@@@@@
    ..........
    ..........
    ..........
    ..........
    ..........
    ..........
    ..........
    ..........
    ..........
    ..........
    ..........
    ..........
    ..........
    ..........
    ..........
    ..........
    ..........

    right-bearing: 12


0xba:
'':
    ............
    ............
    ............
    ............
    ............
    ............
    ............
    ....@@@@....
    ..@@@@@@@@..
    .@@@....@@@.
    .@@......@@.
    @@........@@
    @@........@@
    @@........@@
    @@........@@
    .@@......@@.
    .@@@....@@@.
    ..@@@@@@@@..
    ....@@@@....
    ............
    ............
    @@@@@@@@@@@@
    @@@@@@@@@@@@
    ............
    ............
    ............
    ............
    ............
    ............
    ............
    ............
    ............
    ............
    ............
    ............
    ............

    right-bearing: 10


0xbb:
'':
    ..................
    ..................
    ..................
    ..................
    ..................
    ..................
    ..................
    ..................
    ..................
    ..................
    ..................
    ..................
    ..................
    @@@.....@@@.......
    .@@@.....@@@......
    ..@@@.....@@@.....
    ...@@@.....@@@....
    ....@@@.....@@@...
    .....@@@.....@@@..
    ......@@@.....@@@.
    .......@@@.....@@@
    .......@@@.....@@@
    ......@@@.....@@@.
    .....@@@.....@@@..
    ....@@@.....@@@...
    ...@@@.....@@@....
    ..@@@.....@@@.....
    .@@@.....@@@......
    @@@.....@@@.......
    ..................
    ..................
    ..................
    ..................
    ..................
    ..................
    ..................

    right-bearing: 4


0xbc:
'':
    ......................
    ......................
    ......................
    ......................
    ......................
    ....@@................
    ...@@@................
    @@@@@@................
    @@@.@@..........@@....
    ....@@..........@@....
    ....@@.........@@.....
    ....@@........@@......
    ....@@........@@......
    ....@@.......@@.......
    ....@@......@@........
    ....@@......@@...@@@..
    ....@@.....@@....@@@..
    @@@@@@@@@.@@....@@@@..
    @@@@@@@@@.@@...@@.@@..
    .........@@....@@.@@..
    ........@@....@@..@@..
    ........@@...@@...@@..
    .......@@....@@...@@..
    ......@@....@@@@@@@@@@
    ......@@....@@@@@@@@@@
    .....@@...........@@..
    ..................@@..
    ................@@@@@@
    ................@@@@@@
    ......................
    ......................
    ......................
    ......................
    ......................
    ......................
    ......................



0xbd:
'':
    ......................
    ......................
    ......................
    ......................
    ......................
    ....@@................
    ...@@@................
    @@@@@@................
    @@@.@@..........@@....
    ....@@..........@@....
    ....@@.........@@.....
    ....@@........@@......
    ....@@........@@......
    ....@@.......@@.......
    ....@@......@@........
    ....@@......@@..@@@...
    ....@@.....@@.@@@@@@@.
    @@@@@@@@@.@@.@@@...@@.
    @@@@@@@@@.@@.@@.....@@
    .........@@.........@@
    ........@@..........@@
    ........@@.........@@.
    .......@@.........@@..
    ......@@........@@@...
    ......@@.......@@@....
    .....@@.......@@......
    .............@@.....@@
    ............@@@@@@@@@@
    ............@@@@@@@@@@
    ......................
    ......................
    ......................
    ......................
    ......................
    ......................
    ......................



0xbe:
'':
    ......................
    ......................
    ......................
    ......................
    ......................
    ..@@@@@@..............
    .@@@@@@@@.............
    @@......@@............
    ........@@......@@....
    ........@@......@@....
    .......@@......@@.....
    ....@@@@......@@......
    ....@@@@@.....@@......
    ........@@...@@.......
    ........@@..@@........
    ........@@..@@...@@@..
    @@......@@.@@....@@@..
    .@@@@@@@@.@@....@@@@..
    ..@@@@@@..@@...@@.@@..
    .........@@....@@.@@..
    ........@@....@@..@@..
    ........@@...@@...@@..
    .......@@....@@...@@..
    ......@@....@@@@@@@@@@
    ......@@....@@@@@@@@@@
    .....@@...........@@..
    ..................@@..
    ................@@@@@@
    ................@@@@@@
    ......................
    ......................
    ......................
    ......................
    ......................
    ......................
    ......................



0xbf:
'':
    ..............
    ..............
    ..............
    ..............
    ..............
    ..............
    ..............
    ..............
    ..............
    ..............
    ..............
    ..............
    ..............
    ......@@......
    .....@@@@.....
    .....@@@@.....
    ......@@......
    ..............
    ..............
    ......@@......
    ......@@......
    ......@@......
    .....@@.......
    ....@@@.......
    ..@@@@........
    .@@@..........
    .@@...........
    @@............
    @@............
    @@..........@@
    @@..........@@
    .@@........@@.
    .@@@......@@@.
    ..@@@@@@@@@@..
    ....@@@@@@....
    ..............

    right-bearing: 8


0xc0:
'':
    ......................
    .......@@.............
    .......@@@............
    ........@@@...........
    .........@@@..........
    ..........@@@.........
    ......................
    ....@@@@@@@@..........
    ....@@@@@@@@..........
    .........@@@@.........
    .........@@@@.........
    ........@@..@@........
    ........@@..@@........
    .......@@....@@.......
    .......@@....@@.......
    ......@@......@@......
    ......@@......@@......
    .....@@........@@.....
    .....@@........@@.....
    ....@@..........@@....
    ....@@..........@@....
    ...@@@@@@@@@@@@@@@@...
    ...@@@@@@@@@@@@@@@@...
    ..@@..............@@..
    ..@@..............@@..
    .@@................@@.
    .@@................@@.
    @@@@@@..........@@@@@@
    @@@@@@..........@@@@@@
    ......................
    ......................
    ......................
    ......................
    ......................
    ......................
    ......................



0xc1:
'':
    ......................
    ............@@........
    ...........@@@........
    ..........@@@.........
    .........@@@..........
    ........@@@...........
    ......................
    ....@@@@@@@@..........
    ....@@@@@@@@..........
    .........@@@@.........
    .........@@@@.........
    ........@@..@@........
    ........@@..@@........
    .......@@....@@.......
    .......@@....@@.......
    ......@@......@@......
    ......@@......@@......
    .....@@........@@.....
    .....@@........@@.....
    ....@@..........@@....
    ....@@..........@@....
    ...@@@@@@@@@@@@@@@@...
    ...@@@@@@@@@@@@@@@@...
    ..@@..............@@..
    ..@@..............@@..
    .@@................@@.
    .@@................@@.
    @@@@@@..........@@@@@@
    @@@@@@..........@@@@@@
    ......................
    ......................
    ......................
    ......................
    ......................
    ......................
    ......................



0xc2:
'':
    ......................
    ..........@@..........
    .........@@@@.........
    ........@@@@@@........
    .......@@@..@@@.......
    ......@@......@@......
    ......................
    ....@@@@@@@@..........
    ....@@@@@@@@..........
    .........@@@@.........
    .........@@@@.........
    ........@@..@@........
    ........@@..@@........
    .......@@....@@.......
    .......@@....@@.......
    ......@@......@@......
    ......@@......@@......
    .....@@........@@.....
    .....@@........@@.....
    ....@@..........@@....
    ....@@..........@@....
    ...@@@@@@@@@@@@@@@@...
    ...@@@@@@@@@@@@@@@@...
    ..@@..............@@..
    ..@@..............@@..
    .@@................@@.
    .@@................@@.
    @@@@@@..........@@@@@@
    @@@@@@..........@@@@@@
    ......................
    ......................
    ......................
    ......................
    ......................
    ......................
    ......................



0xc3:
'':
    ......................
    ......................
    .......@@@............
    ......@@@@@@...@......
    ......@...@@@@@@......
    ............@@@.......
    ......................
    ....@@@@@@@@..........
    ....@@@@@@@@..........
    .........@@@@.........
    .........@@@@.........
    ........@@..@@........
    ........@@..@@........
    .......@@....@@.......
    .......@@....@@.......
    ......@@......@@......
    ......@@......@@......
    .....@@........@@.....
    .....@@........@@.....
    ....@@..........@@....
    ....@@..........@@....
    ...@@@@@@@@@@@@@@@@...
    ...@@@@@@@@@@@@@@@@...
    ..@@..............@@..
    ..@@..............@@..
    .@@................@@.
    .@@................@@.
    @@@@@@..........@@@@@@
    @@@@@@..........@@@@@@
    ......................
    ......................
    ......................
    ......................
    ......................
    ......................
    ......................



0xc4:
'':
    ......................
    ......................
    ......@@@....@@@......
    ......@@@....@@@......
    ......@@@....@@@......
    ......................
    ......................
    ....@@@@@@@@..........
    ....@@@@@@@@..........
    .........@@@@.........
    .........@@@@.........
    ........@@..@@........
    ........@@..@@........
    .......@@....@@.......
    .......@@....@@.......
    ......@@......@@......
    ......@@......@@......
    .....@@........@@.....
    .....@@........@@.....
    ....@@..........@@....
    ....@@..........@@....
    ...@@@@@@@@@@@@@@@@...
    ...@@@@@@@@@@@@@@@@...
    ..@@..............@@..
    ..@@..............@@..
    .@@................@@.
    .@@................@@.
    @@@@@@..........@@@@@@
    @@@@@@..........@@@@@@
    ......................
    ......................
    ......................
    ......................
    ......................
    ......................
    ......................



0xc5:
'':
    ......................
    ........@@@@@@........
    .......@@@@@@@@.......
    .......@@....@@.......
    .......@@....@@.......
    .......@@@@@@@@.......
    ........@@@@@@........
    ....@@@@@@@@..........
    ....@@@@@@@@..........
    .........@@@@.........
    .........@@@@.........
    ........@@..@@........
    ........@@..@@........
    .......@@....@@.......
    .......@@....@@.......
    ......@@......@@......
    ......@@......@@......
    .....@@........@@.....
    .....@@........@@.....
    ....@@..........@@....
    ....@@..........@@....
    ...@@@@@@@@@@@@@@@@...
    ...@@@@@@@@@@@@@@@@...
    ..@@..............@@..
    ..@@..............@@..
    .@@................@@.
    .@@................@@.
    @@@@@@..........@@@@@@
    @@@@@@..........@@@@@@
    ......................
    ......................
    ......................
    ......................
    ......................
    ......................
    ......................



0xc6:
'':
    ......................
    ......................
    ......................
    ......................
    ......................
    ......................
    ......................
    ......@@@@@@@@@@@@@@@.
    ......@@@@@@@@@@@@@@@.
    .........@@.@@.....@@.
    .........@@.@@.....@@.
    ........@@..@@.....@@.
    ........@@..@@.....@@.
    .......@@...@@........
    .......@@...@@........
    ......@@....@@....@@..
    ......@@....@@....@@..
    .....@@.....@@@@@@@@..
    .....@@.....@@@@@@@@..
    ....@@@@@@@@@@....@@..
    ....@@@@@@@@@@....@@..
    ...@@.......@@........
    ...@@.......@@........
    ..@@........@@......@@
    ..@@........@@......@@
    .@@.........@@......@@
    .@@.........@@......@@
    @@@@@@....@@@@@@@@@@@@
    @@@@@@....@@@@@@@@@@@@
    ......................
    ......................
    ......................
    ......................
    ......................
    ......................
    ......................



0xc7:
'':
    ..................
    ..................
    ..................
    ..................
    ..................
    ..................
    ..................
    .......@@@@@@...@@
    .....@@@@@@@@@@.@@
    ...@@@@......@@@@@
    ..@@@..........@@@
    ..@@............@@
    .@@..............@
    .@@...............
    @@................
    @@................
    @@................
    @@................
    @@................
    @@................
    @@................
    @@................
    .@@...............
    .@@.............@@
    ..@@............@@
    ..@@@..........@@.
    ...@@@@......@@@@.
    .....@@@@@@@@@@...
    .......@@@@@@.....
    .........@@.......
    ..........@@......
    ...........@@.....
    .......@@..@@.....
    .......@@@@@......
    ........@@@.......
    ..................

    right-bearing: 4


0xc8:
'':
    ................
    ....@@..........
    ....@@@.........
    .....@@@........
    ......@@@.......
    .......@@@......
    ................
    @@@@@@@@@@@@@@@.
    @@@@@@@@@@@@@@@.
    ..@@.........@@.
    ..@@.........@@.
    ..@@.........@@.
    ..@@.........@@.
    ..@@............
    ..@@............
    ..@@....@@......
    ..@@....@@......
    ..@@@@@@@@......
    ..@@@@@@@@......
    ..@@....@@......
    ..@@....@@......
    ..@@............
    ..@@............
    ..@@..........@@
    ..@@..........@@
    ..@@..........@@
    ..@@..........@@
    @@@@@@@@@@@@@@@@
    @@@@@@@@@@@@@@@@
    ................
    ................
    ................
    ................
    ................
    ................
    ................

    right-bearing: 6


0xc9:
'':
    ................
    ..........@@....
    .........@@@....
    ........@@@.....
    .......@@@......
    ......@@@.......
    ................
    @@@@@@@@@@@@@@@.
    @@@@@@@@@@@@@@@.
    ..@@.........@@.
    ..@@.........@@.
    ..@@.........@@.
    ..@@.........@@.
    ..@@............
    ..@@............
    ..@@....@@......
    ..@@....@@......
    ..@@@@@@@@......
    ..@@@@@@@@......
    ..@@....@@......
    ..@@....@@......
    ..@@............
    ..@@............
    ..@@..........@@
    ..@@..........@@
    ..@@..........@@
    ..@@..........@@
    @@@@@@@@@@@@@@@@
    @@@@@@@@@@@@@@@@
    ................
    ................
    ................
    ................
    ................
    ................
    ................

    right-bearing: 6


0xca:
'':
    ................
    .......@@.......
    ......@@@@......
    .....@@@@@@.....
    ....@@@..@@@....
    ...@@......@@...
    ................
    @@@@@@@@@@@@@@@.
    @@@@@@@@@@@@@@@.
    ..@@.........@@.
    ..@@.........@@.
    ..@@.........@@.
    ..@@.........@@.
    ..@@............
    ..@@............
    ..@@....@@......
    ..@@....@@......
    ..@@@@@@@@......
    ..@@@@@@@@......
    ..@@....@@......
    ..@@....@@......
    ..@@............
    ..@@............
    ..@@..........@@
    ..@@..........@@
    ..@@..........@@
    ..@@..........@@
    @@@@@@@@@@@@@@@@
    @@@@@@@@@@@@@@@@
    ................
    ................
    ................
    ................
    ................
    ................
    ................

    right-bearing: 6


0xcb:
'':
    ................
    ................
    ....@@@...@@@...
    ....@@@...@@@...
    ....@@@...@@@...
    ................
    ................
    @@@@@@@@@@@@@@@.
    @@@@@@@@@@@@@@@.
    ..@@.........@@.
    ..@@.........@@.
    ..@@.........@@.
    ..@@.........@@.
    ..@@............
    ..@@............
    ..@@....@@......
    ..@@....@@......
    ..@@@@@@@@......
    ..@@@@@@@@......
    ..@@....@@......
    ..@@....@@......
    ..@@............
    ..@@............
    ..@@..........@@
    ..@@..........@@
    ..@@..........@@
    ..@@..........@@
    @@@@@@@@@@@@@@@@
    @@@@@@@@@@@@@@@@
    ................
    ................
    ................
    ................
    ................
    ................
    ................

    right-bearing: 6


0xcc:
'':
    ..............
    ...@@.........
    ...@@@........
    ....@@@.......
    .....@@@......
    ......@@@.....
    ..............
    @@@@@@@@@@@@@@
    @@@@@@@@@@@@@@
    ......@@......
    ......@@......
    ......@@......
    ......@@......
    ......@@......
    ......@@......
    ......@@......
    ......@@......
    ......@@......
    ......@@......
    ......@@......
    ......@@......
    ......@@......
    ......@@......
    ......@@......
    ......@@......
    ......@@......
    ......@@......
    @@@@@@@@@@@@@@
    @@@@@@@@@@@@@@
    ..............
    ..............
    ..............
    ..............
    ..............
    ..............
    ..............

    right-bearing: 8


0xcd:
'':
    ..............
    .........@@...
    ........@@@...
    .......@@@....
    ......@@@.....
    .....@@@......
    ..............
    @@@@@@@@@@@@@@
    @@@@@@@@@@@@@@
    ......@@......
    ......@@......
    ......@@......
    ......@@......
    ......@@......
    ......@@......
    ......@@......
    ......@@......
    ......@@......
    ......@@......
    ......@@......
    ......@@......
    ......@@......
    ......@@......
    ......@@......
    ......@@......
    ......@@......
    ......@@......
    @@@@@@@@@@@@@@
    @@@@@@@@@@@@@@
    ..............
    ..............
    ..............
    ..............
    ..............
    ..............
    ..............

    right-bearing: 8


0xce:
'':
    ..............
    ......@@......
    .....@@@@.....
    ....@@@@@@....
    ...@@@..@@@...
    ..@@......@@..
    ..............
    @@@@@@@@@@@@@@
    @@@@@@@@@@@@@@
    ......@@......
    ......@@......
    ......@@......
    ......@@......
    ......@@......
    ......@@......
    ......@@......
    ......@@......
    ......@@......
    ......@@......
    ......@@......
    ......@@......
    ......@@......
    ......@@......
    ......@@......
    ......@@......
    ......@@......
    ......@@......
    @@@@@@@@@@@@@@
    @@@@@@@@@@@@@@
    ..............
    ..............
    ..............
    ..............
    ..............
    ..............
    ..............

    right-bearing: 8


0xcf:
'':
    ..............
    ..............
    ..@@@....@@@..
    ..@@@....@@@..
    ..@@@....@@@..
    ..............
    ..............
    @@@@@@@@@@@@@@
    @@@@@@@@@@@@@@
    ......@@......
    ......@@......
    ......@@......
    ......@@......
    ......@@......
    ......@@......
    ......@@......
    ......@@......
    ......@@......
    ......@@......
    ......@@......
    ......@@......
    ......@@......
    ......@@......
    ......@@......
    ......@@......
    ......@@......
    ......@@......
    @@@@@@@@@@@@@@
    @@@@@@@@@@@@@@
    ..............
    ..............
    ..............
    ..............
    ..............
    ..............
    ..............

    right-bearing: 8


0xd0:
'':
    ................
    ................
    ................
    ................
    ................
    ................
    ................
    @@@@@@@@@@@.....
    @@@@@@@@@@@@@...
    ..@@.......@@@..
    ..@@.........@@.
    ..@@.........@@.
    ..@@..........@@
    ..@@..........@@
    ..@@..........@@
    ..@@..........@@
    ..@@..........@@
    @@@@@@@@......@@
    @@@@@@@@......@@
    ..@@..........@@
    ..@@..........@@
    ..@@..........@@
    ..@@..........@@
    ..@@..........@@
    ..@@.........@@.
    ..@@.........@@.
    ..@@.......@@@..
    @@@@@@@@@@@@@...
    @@@@@@@@@@@.....
    ................
    ................
    ................
    ................
    ................
    ................
    ................

    right-bearing: 6


0xd1:
'':
    ..................
    ..................
    .....@@@..........
    ....@@@@@@...@....
    ....@...@@@@@@....
    ..........@@@.....
    ..................
    @@@@@@....@@@@@@@@
    @@@@@@....@@@@@@@@
    ..@@@@........@@..
    ..@@.@@.......@@..
    ..@@.@@.......@@..
    ..@@..@@......@@..
    ..@@..@@......@@..
    ..@@...@@.....@@..
    ..@@...@@.....@@..
    ..@@....@@....@@..
    ..@@....@@....@@..
    ..@@.....@@...@@..
    ..@@.....@@...@@..
    ..@@......@@..@@..
    ..@@......@@..@@..
    ..@@.......@@.@@..
    ..@@.......@@.@@..
    ..@@........@@@@..
    ..@@........@@@@..
    ..@@.........@@@..
    @@@@@@@@.....@@@..
    @@@@@@@@......@@..
    ..................
    ..................
    ..................
    ..................
    ..................
    ..................
    ..................

    right-bearing: 4


0xd2:
'':
    ..................
    ......@@..........
    ......@@@.........
    .......@@@........
    ........@@@.......
    .........@@@......
    ..................
    .......@@@@.......
    .....@@@@@@@@.....
    ...@@@@....@@@@...
    ..@@@........@@@..
    ..@@..........@@..
    .@@............@@.
    .@@............@@.
    @@..............@@
    @@..............@@
    @@..............@@
    @@..............@@
    @@..............@@
    @@..............@@
    @@..............@@
    @@..............@@
    .@@............@@.
    .@@............@@.
    ..@@..........@@..
    ..@@@........@@@..
    ...@@@@....@@@@...
    .....@@@@@@@@.....
    .......@@@@.......
    ..................
    ..................
    ..................
    ..................
    ..................
    ..................
    ..................

    right-bearing: 4


0xd3:
'':
    ..................
    ..........@@......
    .........@@@......
    ........@@@.......
    .......@@@........
    ......@@@.........
    ..................
    .......@@@@.......
    .....@@@@@@@@.....
    ...@@@@....@@@@...
    ..@@@........@@@..
    ..@@..........@@..
    .@@............@@.
    .@@............@@.
    @@..............@@
    @@..............@@
    @@..............@@
    @@..............@@
    @@..............@@
    @@..............@@
    @@..............@@
    @@..............@@
    .@@............@@.
    .@@............@@.
    ..@@..........@@..
    ..@@@........@@@..
    ...@@@@....@@@@...
    .....@@@@@@@@.....
    .......@@@@.......
    ..................
    ..................
    ..................
    ..................
    ..................
    ..................
    ..................

    right-bearing: 4


0xd4:
'':
    ..................
    ........@@........
    .......@@@@.......
    ......@@@@@@......
    .....@@@..@@@.....
    ....@@......@@....
    ..................
    .......@@@@.......
    .....@@@@@@@@.....
    ...@@@@....@@@@...
    ..@@@........@@@..
    ..@@..........@@..
    .@@............@@.
    .@@............@@.
    @@..............@@
    @@..............@@
    @@..............@@
    @@..............@@
    @@..............@@
    @@..............@@
    @@..............@@
    @@..............@@
    .@@............@@.
    .@@............@@.
    ..@@..........@@..
    ..@@@........@@@..
    ...@@@@....@@@@...
    .....@@@@@@@@.....
    .......@@@@.......
    ..................
    ..................
    ..................
    ..................
    ..................
    ..................
    ..................

    right-bearing: 4


0xd5:
'':
    ..................
    ..................
    .....@@@..........
    ....@@@@@@...@....
    ....@...@@@@@@....
    ..........@@@.....
    ..................
    .......@@@@.......
    .....@@@@@@@@.....
    ...@@@@....@@@@...
    ..@@@........@@@..
    ..@@..........@@..
    .@@............@@.
    .@@............@@.
    @@..............@@
    @@..............@@
    @@..............@@
    @@..............@@
    @@..............@@
    @@..............@@
    @@..............@@
    @@..............@@
    .@@............@@.
    .@@............@@.
    ..@@..........@@..
    ..@@@........@@@..
    ...@@@@....@@@@...
    .....@@@@@@@@.....
    .......@@@@.......
    ..................
    ..................
    ..................
    ..................
    ..................
    ..................
    ..................

    right-bearing: 4


0xd6:
'':
    ..................
    ..................
    ....@@@....@@@....
    ....@@@....@@@....
    ....@@@....@@@....
    ..................
    ..................
    .......@@@@.......
    .....@@@@@@@@.....
    ...@@@@....@@@@...
    ..@@@........@@@..
    ..@@..........@@..
    .@@............@@.
    .@@............@@.
    @@..............@@
    @@..............@@
    @@..............@@
    @@..............@@
    @@..............@@
    @@..............@@
    @@..............@@
    @@..............@@
    .@@............@@.
    .@@............@@.
    ..@@..........@@..
    ..@@@........@@@..
    ...@@@@....@@@@...
    .....@@@@@@@@.....
    .......@@@@.......
    ..................
    ..................
    ..................
    ..................
    ..................
    ..................
    ..................

    right-bearing: 4


0xd7:
'':
    ..................
    ..................
    ..................
    ..................
    ..................
    ..................
    ..................
    ..................
    ..................
    @@..............@@
    @@@............@@@
    .@@@..........@@@.
    ..@@@........@@@..
    ...@@@......@@@...
    ....@@@....@@@....
    .....@@@..@@@.....
    ......@@@@@@......
    .......@@@@.......
    .......@@@@.......
    ......@@@@@@......
    .....@@@..@@@.....
    ....@@@....@@@....
    ...@@@......@@@...
    ..@@@........@@@..
    .@@@..........@@@.
    @@@............@@@
    @@..............@@
    ..................
    ..................
    ..................
    ..................
    ..................
    ..................
    ..................
    ..................
    ..................

    right-bearing: 4


0xd8:
'':
    ..................
    ..................
    ..................
    ..................
    ..................
    ..................
    ..................
    .......@@@@......@
    .....@@@@@@@@...@@
    ...@@@@....@@@@@@.
    ..@@@........@@@..
    ..@@.........@@@..
    .@@..........@@@@.
    .@@.........@@.@@.
    @@.........@@...@@
    @@........@@....@@
    @@.......@@.....@@
    @@......@@......@@
    @@......@@......@@
    @@.....@@.......@@
    @@....@@........@@
    @@...@@.........@@
    .@@.@@.........@@.
    .@@@@..........@@.
    ..@@@.........@@..
    ..@@@........@@@..
    .@@@@@@....@@@@...
    @@...@@@@@@@@.....
    @......@@@@.......
    ..................
    ..................
    ..................
    ..................
    ..................
    ..................
    ..................

    right-bearing: 4


0xd9:
'':
    ....................
    ......@@............
    ......@@@...........
    .......@@@..........
    ........@@@.........
    .........@@@........
    ....................
    @@@@@@@@....@@@@@@@@
    @@@@@@@@....@@@@@@@@
    ..@@............@@..
    ..@@............@@..
    ..@@............@@..
    ..@@............@@..
    ..@@............@@..
    ..@@............@@..
    ..@@............@@..
    ..@@............@@..
    ..@@............@@..
    ..@@............@@..
    ..@@............@@..
    ..@@............@@..
    ..@@............@@..
    ..@@............@@..
    ..@@............@@..
    ...@@..........@@...
    ...@@..........@@...
    ....@@@......@@@....
    .....@@@@@@@@@@.....
    .......@@@@@@.......
    ....................
    ....................
    ....................
    ....................
    ....................
    ....................
    ....................

    right-bearing: 2


0xda:
'':
    ....................
    ............@@......
    ...........@@@......
    ..........@@@.......
    .........@@@........
    ........@@@.........
    ....................
    @@@@@@@@....@@@@@@@@
    @@@@@@@@....@@@@@@@@
    ..@@............@@..
    ..@@............@@..
    ..@@............@@..
    ..@@............@@..
    ..@@............@@..
    ..@@............@@..
    ..@@............@@..
    ..@@............@@..
    ..@@............@@..
    ..@@............@@..
    ..@@............@@..
    ..@@............@@..
    ..@@............@@..
    ..@@............@@..
    ..@@............@@..
    ...@@..........@@...
    ...@@..........@@...
    ....@@@......@@@....
    .....@@@@@@@@@@.....
    .......@@@@@@.......
    ....................
    ....................
    ....................
    ....................
    ....................
    ....................
    ....................

    right-bearing: 2


0xdb:
'':
    ....................
    .........@@.........
    ........@@@@........
    .......@@@@@@.......
    ......@@@..@@@......
    .....@@......@@.....
    ....................
    @@@@@@@@....@@@@@@@@
    @@@@@@@@....@@@@@@@@
    ..@@............@@..
    ..@@............@@..
    ..@@............@@..
    ..@@............@@..
    ..@@............@@..
    ..@@............@@..
    ..@@............@@..
    ..@@............@@..
    ..@@............@@..
    ..@@............@@..
    ..@@............@@..
    ..@@............@@..
    ..@@............@@..
    ..@@............@@..
    ..@@............@@..
    ...@@..........@@...
    ...@@..........@@...
    ....@@@......@@@....
    .....@@@@@@@@@@.....
    .......@@@@@@.......
    ....................
    ....................
    ....................
    ....................
    ....................
    ....................
    ....................

    right-bearing: 2


0xdc:
'':
    ....................
    ....................
    .....@@@....@@@.....
    .....@@@....@@@.....
    .....@@@....@@@.....
    ....................
    ....................
    @@@@@@@@....@@@@@@@@
    @@@@@@@@....@@@@@@@@
    ..@@............@@..
    ..@@............@@..
    ..@@............@@..
    ..@@............@@..
    ..@@............@@..
    ..@@............@@..
    ..@@............@@..
    ..@@............@@..
    ..@@............@@..
    ..@@............@@..
    ..@@............@@..
    ..@@............@@..
    ..@@............@@..
    ..@@............@@..
    ..@@............@@..
    ...@@..........@@...
    ...@@..........@@...
    ....@@@......@@@....
    .....@@@@@@@@@@.....
    .......@@@@@@.......
    ....................
    ....................
    ....................
    ....................
    ....................
    ....................
    ....................

    right-bearing: 2


0xdd:
'':
    ..................
    ...........@@.....
    ..........@@@.....
    .........@@@......
    ........@@@.......
    .......@@@........
    ..................
    @@@@@@......@@@@@@
    @@@@@@......@@@@@@
    ..@@..........@@..
    ...@@........@@...
    ...@@........@@...
    ....@@......@@....
    ....@@......@@....
    .....@@....@@.....
    .....@@....@@.....
    ......@@..@@......
    ......@@..@@......
    .......@@@@.......
    .......@@@@.......
    ........@@........
    ........@@........
    ........@@........
    ........@@........
    ........@@........
    ........@@........
    ........@@........
    ....@@@@@@@@@@....
    ....@@@@@@@@@@....
    ..................
    ..................
    ..................
    ..................
    ..................
    ..................
    ..................

    right-bearing: 4


0xde:
'':
    ..................
    ..................
    ..................
    ..................
    ..................
    ..................
    ..................
    @@@@@@............
    @@@@@@............
    ..@@..............
    ..@@..............
    ..@@@@@@@@@@@.....
    ..@@@@@@@@@@@@@...
    ..@@.........@@@..
    ..@@...........@@.
    ..@@...........@@.
    ..@@............@@
    ..@@............@@
    ..@@...........@@.
    ..@@...........@@.
    ..@@.........@@@..
    ..@@@@@@@@@@@@@...
    ..@@@@@@@@@@@.....
    ..@@..............
    ..@@..............
    ..@@..............
    ..@@..............
    @@@@@@............
    @@@@@@............
    ..................
    ..................
    ..................
    ..................
    ..................
    ..................
    ..................

    right-bearing: 4


0xdf:
'':
    ................
    ................
    ................
    ................
    ................
    ................
    ................
    .....@@@@@@.....
    ...@@@@@@@@@@...
    ...@@......@@...
    ..@@........@@..
    ..@@........@@..
    ..@@........@@..
    ..@@.......@@...
    ..@@......@@....
    ..@@..@@@@@.....
    ..@@..@@@@@@....
    ..@@......@@@@..
    ..@@........@@@.
    ..@@.........@@.
    ..@@..........@@
    ..@@..........@@
    ..@@..........@@
    ..@@..........@@
    ..@@..........@@
    ..@@....@@....@@
    ..@@....@@@..@@.
    @@@@@@...@@@@@@.
    @@@@@@.....@@...
    ................
    ................
    ................
    ................
    ................
    ................
    ................

    right-bearing: 6


0xe0:
'':
    ..................
    ..................
    ..................
    ..................
    ..................
    .....@@...........
    .....@@@..........
    ......@@@.........
    .......@@@........
    ........@@@.......
    .........@@.......
    ..................
    ..................
    .....@@@@@@.......
    ...@@@@@@@@@@.....
    ..@@@......@@.....
    ............@@....
    ............@@....
    ............@@....
    ....@@@@@@@@@@....
    ..@@@@@@@@@@@@....
    .@@@........@@....
    .@@.........@@....
    @@..........@@....
    @@..........@@....
    @@.........@@@....
    .@@.......@@@@....
    .@@@@@@@@@@.@@@@@@
    ...@@@@@@@...@@@@@
    ..................
    ..................
    ..................
    ..................
    ..................
    ..................
    ..................

    right-bearing: 4


0xe1:
'':
    ..................
    ..................
    ..................
    ..................
    ..................
    ..........@@......
    .........@@@......
    ........@@@.......
    .......@@@........
    ......@@@.........
    ......@@..........
    ..................
    ..................
    .....@@@@@@.......
    ...@@@@@@@@@@.....
    ..@@@......@@.....
    ............@@....
    ............@@....
    ............@@....
    ....@@@@@@@@@@....
    ..@@@@@@@@@@@@....
    .@@@........@@....
    .@@.........@@....
    @@..........@@....
    @@..........@@....
    @@.........@@@....
    .@@.......@@@@....
    .@@@@@@@@@@.@@@@@@
    ...@@@@@@@...@@@@@
    ..................
    ..................
    ..................
    ..................
    ..................
    ..................
    ..................

    right-bearing: 4


0xe2:
'':
    ..................
    ..................
    ..................
    ..................
    ..................
    .......@@.........
    ......@@@@........
    .....@@@@@@.......
    ....@@@..@@@......
    ...@@......@@.....
    ..................
    ..................
    ..................
    .....@@@@@@.......
    ...@@@@@@@@@@.....
    ..@@@......@@.....
    ............@@....
    ............@@....
    ............@@....
    ....@@@@@@@@@@....
    ..@@@@@@@@@@@@....
    .@@@........@@....
    .@@.........@@....
    @@..........@@....
    @@..........@@....
    @@.........@@@....
    .@@.......@@@@....
    .@@@@@@@@@@.@@@@@@
    ...@@@@@@@...@@@@@
    ..................
    ..................
    ..................
    ..................
    ..................
    ..................
    ..................

    right-bearing: 4


0xe3:
'':
    ..................
    ..................
    ..................
    ..................
    ..................
    ..................
    ..................
    ....@@@...........
    ...@@@@@@...@.....
    ...@...@@@@@@.....
    .........@@@......
    ..................
    ..................
    .....@@@@@@.......
    ...@@@@@@@@@@.....
    ..@@@......@@.....
    ............@@....
    ............@@....
    ............@@....
    ....@@@@@@@@@@....
    ..@@@@@@@@@@@@....
    .@@@........@@....
    .@@.........@@....
    @@..........@@....
    @@..........@@....
    @@.........@@@....
    .@@.......@@@@....
    .@@@@@@@@@@.@@@@@@
    ...@@@@@@@...@@@@@
    ..................
    ..................
    ..................
    ..................
    ..................
    ..................
    ..................

    right-bearing: 4


0xe4:
'':
    ..................
    ..................
    ..................
    ..................
    ..................
    ..................
    ..................
    ....@@@...@@@.....
    ....@@@...@@@.....
    ....@@@...@@@.....
    ..................
    ..................
    ..................
    .....@@@@@@.......
    ...@@@@@@@@@@.....
    ..@@@......@@.....
    ............@@....
    ............@@....
    ............@@....
    ....@@@@@@@@@@....
    ..@@@@@@@@@@@@....
    .@@@........@@....
    .@@.........@@....
    @@..........@@....
    @@..........@@....
    @@.........@@@....
    .@@.......@@@@....
    .@@@@@@@@@@.@@@@@@
    ...@@@@@@@...@@@@@
    ..................
    ..................
    ..................
    ..................
    ..................
    ..................
    ..................

    right-bearing: 4


0xe5:
'':
    ..................
    ..................
    ..................
    ..................
    ..................
    .....@@@@@@.......
    ....@@@@@@@@......
    ....@@....@@......
    ....@@....@@......
    ....@@@@@@@@......
    .....@@@@@@.......
    ..................
    ..................
    .....@@@@@@.......
    ...@@@@@@@@@@.....
    ..@@@......@@.....
    ............@@....
    ............@@....
    ............@@....
    ....@@@@@@@@@@....
    ..@@@@@@@@@@@@....
    .@@@........@@....
    .@@.........@@....
    @@..........@@....
    @@..........@@....
    @@.........@@@....
    .@@.......@@@@....
    .@@@@@@@@@@.@@@@@@
    ...@@@@@@@...@@@@@
    ..................
    ..................
    ..................
    ..................
    ..................
    ..................
    ..................

    right-bearing: 4


0xe6:
'':
    ......................
    ......................
    ......................
    ......................
    ......................
    ......................
    ......................
    ......................
    ......................
    ......................
    ......................
    ......................
    ......................
    ....@@@@@.....@@@@....
    ..@@@@@@@@@.@@@@@@@@..
    .@@@.....@@@@@....@@@.
    ..........@@@......@@.
    ..........@@........@@
    ..........@@........@@
    ....@@@@@@@@@@@@@@@@@@
    ..@@@@@@@@@@@@@@@@@@@@
    .@@@......@@..........
    .@@.......@@..........
    @@........@@..........
    @@........@@..........
    @@.......@@@@.......@@
    .@@.....@@.@@@.....@@@
    .@@@@@@@@...@@@@@@@@@.
    ...@@@@@......@@@@@...
    ......................
    ......................
    ......................
    ......................
    ......................
    ......................
    ......................



0xe7:
'':
    ................
    ................
    ................
    ................
    ................
    ................
    ................
    ................
    ................
    ................
    ................
    ................
    ................
    .....@@@@@@...@@
    ...@@@@@@@@@@.@@
    ..@@@......@@@@@
    .@@..........@@@
    .@@...........@@
    @@............@@
    @@..............
    @@..............
    @@..............
    @@..............
    @@..............
    .@@.............
    .@@..........@@@
    ..@@@.......@@@@
    ...@@@@@@@@@@@..
    .....@@@@@@@....
    .......@@.......
    ........@@......
    .........@@.....
    .....@@..@@.....
    .....@@@@@......
    ......@@@.......
    ................

    right-bearing: 6


0xe8:
'':
    ................
    ................
    ................
    ................
    ................
    .....@@.........
    .....@@@........
    ......@@@.......
    .......@@@......
    ........@@@.....
    .........@@.....
    ................
    ................
    .....@@@@@@.....
    ...@@@@@@@@@@...
    ..@@@......@@@..
    .@@..........@@.
    .@@..........@@.
    @@............@@
    @@@@@@@@@@@@@@@@
    @@@@@@@@@@@@@@@@
    @@..............
    @@..............
    @@..............
    .@@.............
    .@@..........@@@
    ..@@@.......@@@@
    ...@@@@@@@@@@@..
    .....@@@@@@@....
    ................
    ................
    ................
    ................
    ................
    ................
    ................

    right-bearing: 6


0xe9:
'':
    ................
    ................
    ................
    ................
    ................
    ..........@@....
    .........@@@....
    ........@@@.....
    .......@@@......
    ......@@@.......
    ......@@........
    ................
    ................
    .....@@@@@@.....
    ...@@@@@@@@@@...
    ..@@@......@@@..
    .@@..........@@.
    .@@..........@@.
    @@............@@
    @@@@@@@@@@@@@@@@
    @@@@@@@@@@@@@@@@
    @@..............
    @@..............
    @@..............
    .@@.............
    .@@..........@@@
    ..@@@.......@@@@
    ...@@@@@@@@@@@..
    .....@@@@@@@....
    ................
    ................
    ................
    ................
    ................
    ................
    ................

    right-bearing: 6


0xea:
'':
    ................
    ................
    ................
    ................
    ................
    ................
    .......@@.......
    ......@@@@......
    .....@@@@@@.....
    ....@@@..@@@....
    ...@@......@@...
    ................
    ................
    .....@@@@@@.....
    ...@@@@@@@@@@...
    ..@@@......@@@..
    .@@..........@@.
    .@@..........@@.
    @@............@@
    @@@@@@@@@@@@@@@@
    @@@@@@@@@@@@@@@@
    @@..............
    @@..............
    @@..............
    .@@.............
    .@@..........@@@
    ..@@@.......@@@@
    ...@@@@@@@@@@@..
    .....@@@@@@@....
    ................
    ................
    ................
    ................
    ................
    ................
    ................

    right-bearing: 6


0xeb:
'':
    ................
    ................
    ................
    ................
    ................
    ................
    ................
    ...@@@....@@@...
    ...@@@....@@@...
    ...@@@....@@@...
    ................
    ................
    ................
    .....@@@@@@.....
    ...@@@@@@@@@@...
    ..@@@......@@@..
    .@@..........@@.
    .@@..........@@.
    @@............@@
    @@@@@@@@@@@@@@@@
    @@@@@@@@@@@@@@@@
    @@..............
    @@..............
    @@..............
    .@@.............
    .@@..........@@@
    ..@@@.......@@@@
    ...@@@@@@@@@@@..
    .....@@@@@@@....
    ................
    ................
    ................
    ................
    ................
    ................
    ................

    right-bearing: 6


0xec:
'':
    ..............
    ..............
    ..............
    ..............
    ..............
    ...@@.........
    ...@@@........
    ....@@@.......
    .....@@@......
    ......@@@.....
    .......@@.....
    ..............
    ..............
    ..@@@@@@......
    ..@@@@@@......
    ......@@......
    ......@@......
    ......@@......
    ......@@......
    ......@@......
    ......@@......
    ......@@......
    ......@@......
    ......@@......
    ......@@......
    ......@@......
    ......@@......
    @@@@@@@@@@@@@@
    @@@@@@@@@@@@@@
    ..............
    ..............
    ..............
    ..............
    ..............
    ..............
    ..............

    right-bearing: 8


0xed:
'':
    ..............
    ..............
    ..............
    ..............
    ..............
    .........@@...
    ........@@@...
    .......@@@....
    ......@@@.....
    .....@@@......
    .....@@.......
    ..............
    ..............
    ..@@@@@@......
    ..@@@@@@......
    ......@@......
    ......@@......
    ......@@......
    ......@@......
    ......@@......
    ......@@......
    ......@@......
    ......@@......
    ......@@......
    ......@@......
    ......@@......
    ......@@......
    @@@@@@@@@@@@@@
    @@@@@@@@@@@@@@
    ..............
    ..............
    ..............
    ..............
    ..............
    ..............
    ..............

    right-bearing: 8


0xee:
'':
    ..............
    ..............
    ..............
    ..............
    ..............
    ......@@......
    .....@@@@.....
    ....@@@@@@....
    ...@@@..@@@...
    ..@@......@@..
    ..............
    ..............
    ..............
    ..@@@@@@......
    ..@@@@@@......
    ......@@......
    ......@@......
    ......@@......
    ......@@......
    ......@@......
    ......@@......
    ......@@......
    ......@@......
    ......@@......
    ......@@......
    ......@@......
    ......@@......
    @@@@@@@@@@@@@@
    @@@@@@@@@@@@@@
    ..............
    ..............
    ..............
    ..............
    ..............
    ..............
    ..............

    right-bearing: 8


0xef:
'':
    ..............
    ..............
    ..............
    ..............
    ..............
    ..............
    ..@@@....@@@..
    ..@@@....@@@..
    ..@@@....@@@..
    ..............
    ..............
    ..............
    ..............
    ..@@@@@@......
    ..@@@@@@......
    ......@@......
    ......@@......
    ......@@......
    ......@@......
    ......@@......
    ......@@......
    ......@@......
    ......@@......
    ......@@......
    ......@@......
    ......@@......
    ......@@......
    @@@@@@@@@@@@@@
    @@@@@@@@@@@@@@
    ..............
    ..............
    ..............
    ..............
    ..............
    ..............
    ..............

    right-bearing: 8


0xf0:
'':
    ................
    ................
    ................
    ................
    ................
    ...@@@@.....@@..
    .@@@@@@@@.@@@@..
    .@@....@@@@@....
    @@.....@@@@.....
    .....@@@@@@@....
    ...@@@@...@@@...
    ..@@@......@@@..
    ..@.........@@..
    .....@@@@@@..@@.
    ...@@@@@@@@@@@@.
    ..@@@......@@@@@
    .@@..........@@@
    .@@..........@@@
    @@............@@
    @@............@@
    @@............@@
    @@............@@
    @@............@@
    @@............@@
    .@@..........@@.
    .@@..........@@.
    ..@@@......@@@..
    ...@@@@@@@@@@...
    .....@@@@@@.....
    ................
    ................
    ................
    ................
    ................
    ................
    ................

    right-bearing: 6


0xf1:
'':
    ..................
    ..................
    ..................
    ..................
    ..................
    ..................
    ..................
    .....@@@..........
    ....@@@@@@...@....
    ....@...@@@@@@....
    ..........@@@.....
    ..................
    ..................
    @@@@...@@@@@......
    @@@@.@@@@@@@@@....
    ..@@@@@.....@@@...
    ..@@@........@@...
    ..@@..........@@..
    ..@@..........@@..
    ..@@..........@@..
    ..@@..........@@..
    ..@@..........@@..
    ..@@..........@@..
    ..@@..........@@..
    ..@@..........@@..
    ..@@..........@@..
    ..@@..........@@..
    @@@@@@......@@@@@@
    @@@@@@......@@@@@@
    ..................
    ..................
    ..................
    ..................
    ..................
    ..................
    ..................

    right-bearing: 4


0xf2:
'':
    ................
    ................
    ................
    ................
    ................
    ....@@..........
    ....@@@.........
    .....@@@........
    ......@@@.......
    .......@@@......
    ........@@......
    ................
    ................
    .....@@@@@@.....
    ...@@@@@@@@@@...
    ..@@@......@@@..
    .@@..........@@.
    .@@..........@@.
    @@............@@
    @@............@@
    @@............@@
    @@............@@
    @@............@@
    @@............@@
    .@@..........@@.
    .@@..........@@.
    ..@@@......@@@..
    ...@@@@@@@@@@...
    .....@@@@@@.....
    ................
    ................
    ................
    ................
    ................
    ................
    ................

    right-bearing: 6


0xf3:
'':
    ................
    ................
    ................
    ................
    ................
    ..........@@....
    .........@@@....
    ........@@@.....
    .......@@@......
    ......@@@.......
    ......@@........
    ................
    ................
    .....@@@@@@.....
    ...@@@@@@@@@@...
    ..@@@......@@@..
    .@@..........@@.
    .@@..........@@.
    @@............@@
    @@............@@
    @@............@@
    @@............@@
    @@............@@
    @@............@@
    .@@..........@@.
    .@@..........@@.
    ..@@@......@@@..
    ...@@@@@@@@@@...
    .....@@@@@@.....
    ................
    ................
    ................
    ................
    ................
    ................
    ................

    right-bearing: 6


0xf4:
'':
    ................
    ................
    ................
    ................
    ................
    .......@@.......
    ......@@@@......
    .....@@@@@@.....
    ....@@@..@@@....
    ...@@......@@...
    ................
    ................
    ................
    .....@@@@@@.....
    ...@@@@@@@@@@...
    ..@@@......@@@..
    .@@..........@@.
    .@@..........@@.
    @@............@@
    @@............@@
    @@............@@
    @@............@@
    @@............@@
    @@............@@
    .@@..........@@.
    .@@..........@@.
    ..@@@......@@@..
    ...@@@@@@@@@@...
    .....@@@@@@.....
    ................
    ................
    ................
    ................
    ................
    ................
    ................

    right-bearing: 6


0xf5:
'':
    ................
    ................
    ................
    ................
    ................
    ................
    ................
    ....@@@.........
    ...@@@@@@...@...
    ...@...@@@@@@...
    .........@@@....
    ................
    ................
    .....@@@@@@.....
    ...@@@@@@@@@@...
    ..@@@......@@@..
    .@@..........@@.
    .@@..........@@.
    @@............@@
    @@............@@
    @@............@@
    @@............@@
    @@............@@
    @@............@@
    .@@..........@@.
    .@@..........@@.
    ..@@@......@@@..
    ...@@@@@@@@@@...
    .....@@@@@@.....
    ................
    ................
    ................
    ................
    ................
    ................
    ................

    right-bearing: 6


0xf6:
'':
    ................
    ................
    ................
    ................
    ................
    ................
    ................
    ...@@@....@@@...
    ...@@@....@@@...
    ...@@@....@@@...
    ................
    ................
    ................
    .....@@@@@@.....
    ...@@@@@@@@@@...
    ..@@@......@@@..
    .@@..........@@.
    .@@..........@@.
    @@............@@
    @@............@@
    @@............@@
    @@............@@
    @@............@@
    @@............@@
    .@@..........@@.
    .@@..........@@.
    ..@@@......@@@..
    ...@@@@@@@@@@...
    .....@@@@@@.....
    ................
    ................
    ................
    ................
    ................
    ................
    ................

    right-bearing: 6


0xf7:
'':
    .................
    .................
    .................
    .................
    .................
    .................
    .................
    .................
    .................
    .......@@@.......
    ......@@@@@......
    ......@@@@@......
    .......@@@.......
    .................
    .................
    .................
    .................
    @@@@@@@@@@@@@@@@@
    @@@@@@@@@@@@@@@@@
    .................
    .................
    .................
    .................
    .......@@@.......
    ......@@@@@......
    ......@@@@@......
    .......@@@.......
    .................
    .................
    .................
    .................
    .................
    .................
    .................
    .................
    .................

    right-bearing: 5


0xf8:
'':
    ................
    ................
    ................
    ................
    ................
    ................
    ................
    ................
    ................
    ................
    ................
    ................
    ................
    .....@@@@@@...@@
    ...@@@@@@@@@@@@.
    ..@@@......@@@..
    .@@........@@@@.
    .@@.......@@.@@.
    @@.......@@...@@
    @@......@@....@@
    @@.....@@.....@@
    @@.....@@.....@@
    @@....@@......@@
    @@...@@.......@@
    .@@.@@.......@@.
    .@@@@........@@.
    ..@@@......@@@..
    .@@@@@@@@@@@@...
    @@...@@@@@@.....
    ................
    ................
    ................
    ................
    ................
    ................
    ................

    right-bearing: 6


0xf9:
'':
    ..................
    ..................
    ..................
    ..................
    ..................
    .....@@...........
    .....@@@..........
    ......@@@.........
    .......@@@........
    ........@@@.......
    .........@@.......
    ..................
    ..................
    @@@@........@@@@..
    @@@@........@@@@..
    ..@@..........@@..
    ..@@..........@@..
    ..@@..........@@..
    ..@@..........@@..
    ..@@..........@@..
    ..@@..........@@..
    ..@@..........@@..
    ..@@..........@@..
    ..@@..........@@..
    ..@@..........@@..
    ..@@.........@@@..
    ...@@......@@@@@..
    ...@@@@@@@@@@.@@@@
    .....@@@@@@...@@@@
    ..................
    ..................
    ..................
    ..................
    ..................
    ..................
    ..................

    right-bearing: 4


0xfa:
'':
    ..................
    ..................
    ..................
    ..................
    ..................
    ..........@@......
    .........@@@......
    ........@@@.......
    .......@@@........
    ......@@@.........
    ......@@..........
    ..................
    ..................
    @@@@........@@@@..
    @@@@........@@@@..
    ..@@..........@@..
    ..@@..........@@..
    ..@@..........@@..
    ..@@..........@@..
    ..@@..........@@..
    ..@@..........@@..
    ..@@..........@@..
    ..@@..........@@..
    ..@@..........@@..
    ..@@..........@@..
    ..@@.........@@@..
    ...@@......@@@@@..
    ...@@@@@@@@@@.@@@@
    .....@@@@@@...@@@@
    ..................
    ..................
    ..................
    ..................
    ..................
    ..................
    ..................

    right-bearing: 4


0xfb:
'':
    ..................
    ..................
    ..................
    ..................
    ..................
    .......@@.........
    ......@@@@........
    .....@@@@@@.......
    ....@@@..@@@......
    ...@@......@@.....
    ..................
    ..................
    ..................
    @@@@........@@@@..
    @@@@........@@@@..
    ..@@..........@@..
    ..@@..........@@..
    ..@@..........@@..
    ..@@..........@@..
    ..@@..........@@..
    ..@@..........@@..
    ..@@..........@@..
    ..@@..........@@..
    ..@@..........@@..
    ..@@..........@@..
    ..@@.........@@@..
    ...@@......@@@@@..
    ...@@@@@@@@@@.@@@@
    .....@@@@@@...@@@@
    ..................
    ..................
    ..................
    ..................
    ..................
    ..................
    ..................

    right-bearing: 4


0xfc:
'':
    ..................
    ..................
    ..................
    ..................
    ..................
    ..................
    ..................
    ....@@@....@@@....
    ....@@@....@@@....
    ....@@@....@@@....
    ..................
    ..................
    ..................
    @@@@........@@@@..
    @@@@........@@@@..
    ..@@..........@@..
    ..@@..........@@..
    ..@@..........@@..
    ..@@..........@@..
    ..@@..........@@..
    ..@@..........@@..
    ..@@..........@@..
    ..@@..........@@..
    ..@@..........@@..
    ..@@..........@@..
    ..@@.........@@@..
    ...@@......@@@@@..
    ...@@@@@@@@@@.@@@@
    .....@@@@@@...@@@@
    ..................
    ..................
    ..................
    ..................
    ..................
    ..................
    ..................

    right-bearing: 4


0xfd:
'':
    ..................
    ..................
    ..................
    ..................
    ..................
    ...........@@.....
    ..........@@@.....
    .........@@@......
    ........@@@.......
    .......@@@........
    .......@@.........
    ..................
    ..................
    @@@@@@......@@@@@@
    @@@@@@......@@@@@@
    ..@@..........@@..
    ..@@..........@@..
    ...@@........@@...
    ...@@........@@...
    ....@@......@@....
    ....@@......@@....
    .....@@....@@.....
    .....@@....@@.....
    ......@@..@@......
    ......@@..@@......
    .......@@@@.......
    .......@@@@.......
    ........@@........
    ........@@........
    ........@@........
    .......@@.........
    .......@@.........
    ......@@..........
    ......@@..........
    @@@@@@@@@@........
    @@@@@@@@@@........

    right-bearing: 4


0xfe:
'':
    ..................
    ..................
    ..................
    ..................
    ..................
    @@@@..............
    @@@@..............
    ..@@..............
    ..@@..............
    ..@@..............
    ..@@..............
    ..@@..............
    ..@@..............
    ..@@...@@@@@@.....
    ..@@.@@@@@@@@@@...
    ..@@@@@......@@@..
    ..@@@..........@@.
    ..@@...........@@.
    ..@@............@@
    ..@@............@@
    ..@@............@@
    ..@@............@@
    ..@@............@@
    ..@@............@@
    ..@@...........@@.
    ..@@@..........@@.
    ..@@@@@......@@@..
    ..@@.@@@@@@@@@@...
    ..@@...@@@@@@.....
    ..@@..............
    ..@@..............
    ..@@..............
    ..@@..............
    ..@@..............
    ..@@..............
    @@@@@@@@..........

    right-bearing: 4


0xff:
'':
    ..................
    ..................
    ..................
    ..................
    ..................
    ..................
    ..................
    ....@@@....@@@....
    ....@@@....@@@....
    ....@@@....@@@....
    ..................
    ..................
    ..................
    @@@@@@......@@@@@@
    @@@@@@......@@@@@@
    ..@@..........@@..
    ..@@..........@@..
    ...@@........@@...
    ...@@........@@...
    ....@@......@@....
    ....@@......@@....
    .....@@....@@.....
    .....@@....@@.....
    ......@@..@@......
    ......@@..@@......
    .......@@@@.......
    .......@@@@.......
    ........@@........
    ........@@........
    ........@@........
    .......@@.........
    .......@@.........
    ......@@..........
    ......@@..........
    @@@@@@@@@@........
    @@@@@@@@@@........

    right-bearing: 4


default:
    ..................
    ..................
    ..................
    @@@@@@@@@@@@@@@@@@
    @@@@@@@@@@@@@@@@@@
    @@..............@@
    @@..............@@
    @@..............@@
    @@..............@@
    @@..............@@
    @@..............@@
    @@..............@@
    @@..............@@
    @@..............@@
    @@..............@@
    @@..............@@
    @@..............@@
    @@..............@@
    @@..............@@
    @@..............@@
    @@..............@@
    @@..............@@
    @@..............@@
    @@..............@@
    @@..............@@
    @@..............@@
    @@..............@@
    @@..............@@
    @@..............@@
    @@..............@@
    @@..............@@
    @@..............@@
    @@..............@@
    @@@@@@@@@@@@@@@@@@
    @@@@@@@@@@@@@@@@@@
    ..................

    right-bearing: 4


